<mxfile host="app.diagrams.net" agent="Mozilla/5.0 (Windows NT 10.0; Win64; x64) AppleWebKit/537.36 (KHTML, like Gecko) Chrome/130.0.0.0 Safari/537.36" version="24.8.4">
  <diagram name="Page-1" id="In8OYmmmCo5N7rBqkwvS">
    <mxGraphModel dx="1305" dy="530" grid="1" gridSize="10" guides="1" tooltips="1" connect="1" arrows="1" fold="1" page="1" pageScale="1" pageWidth="850" pageHeight="1100" math="0" shadow="0">
      <root>
        <mxCell id="0" />
        <mxCell id="1" parent="0" />
        <mxCell id="xQRUrv1FKYMeT_BhPnYZ-15" value="Postgresql Function" style="swimlane;fontStyle=0;childLayout=stackLayout;horizontal=1;startSize=30;horizontalStack=0;resizeParent=1;resizeParentMax=0;resizeLast=0;collapsible=1;marginBottom=0;whiteSpace=wrap;html=1;" vertex="1" parent="1">
          <mxGeometry x="134" y="200" width="150" height="125" as="geometry" />
        </mxCell>
        <mxCell id="xQRUrv1FKYMeT_BhPnYZ-16" value="insert_policy" style="text;strokeColor=none;fillColor=none;align=left;verticalAlign=middle;spacingLeft=4;spacingRight=4;overflow=hidden;points=[[0,0.5],[1,0.5]];portConstraint=eastwest;rotatable=0;whiteSpace=wrap;html=1;" vertex="1" parent="xQRUrv1FKYMeT_BhPnYZ-15">
          <mxGeometry y="30" width="150" height="20" as="geometry" />
        </mxCell>
        <mxCell id="xQRUrv1FKYMeT_BhPnYZ-19" value="view_policy" style="text;strokeColor=none;fillColor=none;align=left;verticalAlign=middle;spacingLeft=4;spacingRight=4;overflow=hidden;points=[[0,0.5],[1,0.5]];portConstraint=eastwest;rotatable=0;whiteSpace=wrap;html=1;" vertex="1" parent="xQRUrv1FKYMeT_BhPnYZ-15">
          <mxGeometry y="50" width="150" height="20" as="geometry" />
        </mxCell>
        <mxCell id="xQRUrv1FKYMeT_BhPnYZ-17" value="set_policy_status" style="text;strokeColor=none;fillColor=none;align=left;verticalAlign=middle;spacingLeft=4;spacingRight=4;overflow=hidden;points=[[0,0.5],[1,0.5]];portConstraint=eastwest;rotatable=0;whiteSpace=wrap;html=1;" vertex="1" parent="xQRUrv1FKYMeT_BhPnYZ-15">
          <mxGeometry y="70" width="150" height="20" as="geometry" />
        </mxCell>
        <mxCell id="xQRUrv1FKYMeT_BhPnYZ-18" value="update_policy" style="text;strokeColor=none;fillColor=none;align=left;verticalAlign=middle;spacingLeft=4;spacingRight=4;overflow=hidden;points=[[0,0.5],[1,0.5]];portConstraint=eastwest;rotatable=0;whiteSpace=wrap;html=1;" vertex="1" parent="xQRUrv1FKYMeT_BhPnYZ-15">
          <mxGeometry y="90" width="150" height="15" as="geometry" />
        </mxCell>
        <mxCell id="xQRUrv1FKYMeT_BhPnYZ-334" value="set_auto_check_time" style="text;strokeColor=none;fillColor=none;align=left;verticalAlign=middle;spacingLeft=4;spacingRight=4;overflow=hidden;points=[[0,0.5],[1,0.5]];portConstraint=eastwest;rotatable=0;whiteSpace=wrap;html=1;" vertex="1" parent="xQRUrv1FKYMeT_BhPnYZ-15">
          <mxGeometry y="105" width="150" height="20" as="geometry" />
        </mxCell>
        <mxCell id="xQRUrv1FKYMeT_BhPnYZ-245" value="" style="group" vertex="1" connectable="0" parent="1">
          <mxGeometry x="421" y="200" width="390" height="360" as="geometry" />
        </mxCell>
        <mxCell id="xQRUrv1FKYMeT_BhPnYZ-42" value="insert_policy Function" style="shape=table;startSize=20;container=1;collapsible=1;childLayout=tableLayout;fixedRows=1;rowLines=0;fontStyle=1;align=center;resizeLast=1;html=1;" vertex="1" parent="xQRUrv1FKYMeT_BhPnYZ-245">
          <mxGeometry width="371.4285714285715" height="329.1428571428571" as="geometry" />
        </mxCell>
        <mxCell id="xQRUrv1FKYMeT_BhPnYZ-43" value="" style="shape=tableRow;horizontal=0;startSize=0;swimlaneHead=0;swimlaneBody=0;fillColor=none;collapsible=0;dropTarget=0;points=[[0,0.5],[1,0.5]];portConstraint=eastwest;top=0;left=0;right=0;bottom=1;" vertex="1" parent="xQRUrv1FKYMeT_BhPnYZ-42">
          <mxGeometry y="20" width="371.4285714285715" height="20" as="geometry" />
        </mxCell>
        <mxCell id="xQRUrv1FKYMeT_BhPnYZ-44" value="Variable type" style="shape=partialRectangle;connectable=0;fillColor=none;top=0;left=0;bottom=0;right=0;fontStyle=1;overflow=hidden;whiteSpace=wrap;html=1;" vertex="1" parent="xQRUrv1FKYMeT_BhPnYZ-43">
          <mxGeometry width="180" height="20" as="geometry">
            <mxRectangle width="180" height="20" as="alternateBounds" />
          </mxGeometry>
        </mxCell>
        <mxCell id="xQRUrv1FKYMeT_BhPnYZ-45" value="Variables names" style="shape=partialRectangle;connectable=0;fillColor=none;top=0;left=0;bottom=0;right=0;align=left;spacingLeft=6;fontStyle=5;overflow=hidden;whiteSpace=wrap;html=1;" vertex="1" parent="xQRUrv1FKYMeT_BhPnYZ-43">
          <mxGeometry x="180" width="191.4285714285715" height="20" as="geometry">
            <mxRectangle width="191.4285714285715" height="20" as="alternateBounds" />
          </mxGeometry>
        </mxCell>
        <mxCell id="xQRUrv1FKYMeT_BhPnYZ-46" value="" style="shape=tableRow;horizontal=0;startSize=0;swimlaneHead=0;swimlaneBody=0;fillColor=none;collapsible=0;dropTarget=0;points=[[0,0.5],[1,0.5]];portConstraint=eastwest;top=0;left=0;right=0;bottom=0;" vertex="1" parent="xQRUrv1FKYMeT_BhPnYZ-42">
          <mxGeometry y="40" width="371.4285714285715" height="20" as="geometry" />
        </mxCell>
        <mxCell id="xQRUrv1FKYMeT_BhPnYZ-47" value="VARCHAR" style="shape=partialRectangle;connectable=0;fillColor=none;top=0;left=0;bottom=0;right=0;editable=1;overflow=hidden;whiteSpace=wrap;html=1;align=left;" vertex="1" parent="xQRUrv1FKYMeT_BhPnYZ-46">
          <mxGeometry width="180" height="20" as="geometry">
            <mxRectangle width="180" height="20" as="alternateBounds" />
          </mxGeometry>
        </mxCell>
        <mxCell id="xQRUrv1FKYMeT_BhPnYZ-48" value="p_policy_name" style="shape=partialRectangle;connectable=0;fillColor=none;top=0;left=0;bottom=0;right=0;align=left;spacingLeft=6;overflow=hidden;whiteSpace=wrap;html=1;" vertex="1" parent="xQRUrv1FKYMeT_BhPnYZ-46">
          <mxGeometry x="180" width="191.4285714285715" height="20" as="geometry">
            <mxRectangle width="191.4285714285715" height="20" as="alternateBounds" />
          </mxGeometry>
        </mxCell>
        <mxCell id="xQRUrv1FKYMeT_BhPnYZ-49" value="" style="shape=tableRow;horizontal=0;startSize=0;swimlaneHead=0;swimlaneBody=0;fillColor=none;collapsible=0;dropTarget=0;points=[[0,0.5],[1,0.5]];portConstraint=eastwest;top=0;left=0;right=0;bottom=0;" vertex="1" parent="xQRUrv1FKYMeT_BhPnYZ-42">
          <mxGeometry y="60" width="371.4285714285715" height="20" as="geometry" />
        </mxCell>
        <mxCell id="xQRUrv1FKYMeT_BhPnYZ-50" value="BOOLEAN DEFAULT FALSE" style="shape=partialRectangle;connectable=0;fillColor=none;top=0;left=0;bottom=0;right=0;editable=1;overflow=hidden;whiteSpace=wrap;html=1;align=left;" vertex="1" parent="xQRUrv1FKYMeT_BhPnYZ-49">
          <mxGeometry width="180" height="20" as="geometry">
            <mxRectangle width="180" height="20" as="alternateBounds" />
          </mxGeometry>
        </mxCell>
        <mxCell id="xQRUrv1FKYMeT_BhPnYZ-51" value="p_status" style="shape=partialRectangle;connectable=0;fillColor=none;top=0;left=0;bottom=0;right=0;align=left;spacingLeft=6;overflow=hidden;whiteSpace=wrap;html=1;" vertex="1" parent="xQRUrv1FKYMeT_BhPnYZ-49">
          <mxGeometry x="180" width="191.4285714285715" height="20" as="geometry">
            <mxRectangle width="191.4285714285715" height="20" as="alternateBounds" />
          </mxGeometry>
        </mxCell>
        <mxCell id="xQRUrv1FKYMeT_BhPnYZ-52" value="" style="shape=tableRow;horizontal=0;startSize=0;swimlaneHead=0;swimlaneBody=0;fillColor=none;collapsible=0;dropTarget=0;points=[[0,0.5],[1,0.5]];portConstraint=eastwest;top=0;left=0;right=0;bottom=0;" vertex="1" parent="xQRUrv1FKYMeT_BhPnYZ-42">
          <mxGeometry y="80" width="371.4285714285715" height="20" as="geometry" />
        </mxCell>
        <mxCell id="xQRUrv1FKYMeT_BhPnYZ-53" value="VARCHAR DEFAULT &#39;monthly&#39;" style="shape=partialRectangle;connectable=0;fillColor=none;top=0;left=0;bottom=0;right=0;editable=1;overflow=hidden;whiteSpace=wrap;html=1;align=left;" vertex="1" parent="xQRUrv1FKYMeT_BhPnYZ-52">
          <mxGeometry width="180" height="20" as="geometry">
            <mxRectangle width="180" height="20" as="alternateBounds" />
          </mxGeometry>
        </mxCell>
        <mxCell id="xQRUrv1FKYMeT_BhPnYZ-54" value="p_reval_cycle" style="shape=partialRectangle;connectable=0;fillColor=none;top=0;left=0;bottom=0;right=0;align=left;spacingLeft=6;overflow=hidden;whiteSpace=wrap;html=1;" vertex="1" parent="xQRUrv1FKYMeT_BhPnYZ-52">
          <mxGeometry x="180" width="191.4285714285715" height="20" as="geometry">
            <mxRectangle width="191.4285714285715" height="20" as="alternateBounds" />
          </mxGeometry>
        </mxCell>
        <mxCell id="xQRUrv1FKYMeT_BhPnYZ-56" value="" style="shape=tableRow;horizontal=0;startSize=0;swimlaneHead=0;swimlaneBody=0;fillColor=none;collapsible=0;dropTarget=0;points=[[0,0.5],[1,0.5]];portConstraint=eastwest;top=0;left=0;right=0;bottom=0;" vertex="1" parent="xQRUrv1FKYMeT_BhPnYZ-42">
          <mxGeometry y="100" width="371.4285714285715" height="20" as="geometry" />
        </mxCell>
        <mxCell id="xQRUrv1FKYMeT_BhPnYZ-57" value="INT DEFAULT 15" style="shape=partialRectangle;connectable=0;fillColor=none;top=0;left=0;bottom=0;right=0;editable=1;overflow=hidden;whiteSpace=wrap;html=1;align=left;" vertex="1" parent="xQRUrv1FKYMeT_BhPnYZ-56">
          <mxGeometry width="180" height="20" as="geometry">
            <mxRectangle width="180" height="20" as="alternateBounds" />
          </mxGeometry>
        </mxCell>
        <mxCell id="xQRUrv1FKYMeT_BhPnYZ-58" value="p_max_len" style="shape=partialRectangle;connectable=0;fillColor=none;top=0;left=0;bottom=0;right=0;align=left;spacingLeft=6;overflow=hidden;whiteSpace=wrap;html=1;" vertex="1" parent="xQRUrv1FKYMeT_BhPnYZ-56">
          <mxGeometry x="180" width="191.4285714285715" height="20" as="geometry">
            <mxRectangle width="191.4285714285715" height="20" as="alternateBounds" />
          </mxGeometry>
        </mxCell>
        <mxCell id="xQRUrv1FKYMeT_BhPnYZ-59" value="" style="shape=tableRow;horizontal=0;startSize=0;swimlaneHead=0;swimlaneBody=0;fillColor=none;collapsible=0;dropTarget=0;points=[[0,0.5],[1,0.5]];portConstraint=eastwest;top=0;left=0;right=0;bottom=0;" vertex="1" parent="xQRUrv1FKYMeT_BhPnYZ-42">
          <mxGeometry y="120" width="371.4285714285715" height="20" as="geometry" />
        </mxCell>
        <mxCell id="xQRUrv1FKYMeT_BhPnYZ-60" value="INT DEFAULT 7" style="shape=partialRectangle;connectable=0;fillColor=none;top=0;left=0;bottom=0;right=0;editable=1;overflow=hidden;whiteSpace=wrap;html=1;align=left;" vertex="1" parent="xQRUrv1FKYMeT_BhPnYZ-59">
          <mxGeometry width="180" height="20" as="geometry">
            <mxRectangle width="180" height="20" as="alternateBounds" />
          </mxGeometry>
        </mxCell>
        <mxCell id="xQRUrv1FKYMeT_BhPnYZ-61" value="p_min_len" style="shape=partialRectangle;connectable=0;fillColor=none;top=0;left=0;bottom=0;right=0;align=left;spacingLeft=6;overflow=hidden;whiteSpace=wrap;html=1;" vertex="1" parent="xQRUrv1FKYMeT_BhPnYZ-59">
          <mxGeometry x="180" width="191.4285714285715" height="20" as="geometry">
            <mxRectangle width="191.4285714285715" height="20" as="alternateBounds" />
          </mxGeometry>
        </mxCell>
        <mxCell id="xQRUrv1FKYMeT_BhPnYZ-81" value="" style="shape=tableRow;horizontal=0;startSize=0;swimlaneHead=0;swimlaneBody=0;fillColor=none;collapsible=0;dropTarget=0;points=[[0,0.5],[1,0.5]];portConstraint=eastwest;top=0;left=0;right=0;bottom=0;" vertex="1" parent="xQRUrv1FKYMeT_BhPnYZ-42">
          <mxGeometry y="140" width="371.4285714285715" height="20" as="geometry" />
        </mxCell>
        <mxCell id="xQRUrv1FKYMeT_BhPnYZ-82" value="INT DEFAULT 1" style="shape=partialRectangle;connectable=0;fillColor=none;top=0;left=0;bottom=0;right=0;editable=1;overflow=hidden;whiteSpace=wrap;html=1;align=left;" vertex="1" parent="xQRUrv1FKYMeT_BhPnYZ-81">
          <mxGeometry width="180" height="20" as="geometry">
            <mxRectangle width="180" height="20" as="alternateBounds" />
          </mxGeometry>
        </mxCell>
        <mxCell id="xQRUrv1FKYMeT_BhPnYZ-83" value="p_upper_char" style="shape=partialRectangle;connectable=0;fillColor=none;top=0;left=0;bottom=0;right=0;align=left;spacingLeft=6;overflow=hidden;whiteSpace=wrap;html=1;" vertex="1" parent="xQRUrv1FKYMeT_BhPnYZ-81">
          <mxGeometry x="180" width="191.4285714285715" height="20" as="geometry">
            <mxRectangle width="191.4285714285715" height="20" as="alternateBounds" />
          </mxGeometry>
        </mxCell>
        <mxCell id="xQRUrv1FKYMeT_BhPnYZ-84" value="" style="shape=tableRow;horizontal=0;startSize=0;swimlaneHead=0;swimlaneBody=0;fillColor=none;collapsible=0;dropTarget=0;points=[[0,0.5],[1,0.5]];portConstraint=eastwest;top=0;left=0;right=0;bottom=0;" vertex="1" parent="xQRUrv1FKYMeT_BhPnYZ-42">
          <mxGeometry y="160" width="371.4285714285715" height="20" as="geometry" />
        </mxCell>
        <mxCell id="xQRUrv1FKYMeT_BhPnYZ-85" value="INT DEFAULT 1" style="shape=partialRectangle;connectable=0;fillColor=none;top=0;left=0;bottom=0;right=0;editable=1;overflow=hidden;whiteSpace=wrap;html=1;align=left;" vertex="1" parent="xQRUrv1FKYMeT_BhPnYZ-84">
          <mxGeometry width="180" height="20" as="geometry">
            <mxRectangle width="180" height="20" as="alternateBounds" />
          </mxGeometry>
        </mxCell>
        <mxCell id="xQRUrv1FKYMeT_BhPnYZ-86" value="p_lower_char&lt;span style=&quot;white-space: pre;&quot;&gt;&#x9;&lt;/span&gt;" style="shape=partialRectangle;connectable=0;fillColor=none;top=0;left=0;bottom=0;right=0;align=left;spacingLeft=6;overflow=hidden;whiteSpace=wrap;html=1;" vertex="1" parent="xQRUrv1FKYMeT_BhPnYZ-84">
          <mxGeometry x="180" width="191.4285714285715" height="20" as="geometry">
            <mxRectangle width="191.4285714285715" height="20" as="alternateBounds" />
          </mxGeometry>
        </mxCell>
        <mxCell id="xQRUrv1FKYMeT_BhPnYZ-112" value="" style="shape=tableRow;horizontal=0;startSize=0;swimlaneHead=0;swimlaneBody=0;fillColor=none;collapsible=0;dropTarget=0;points=[[0,0.5],[1,0.5]];portConstraint=eastwest;top=0;left=0;right=0;bottom=0;" vertex="1" parent="xQRUrv1FKYMeT_BhPnYZ-42">
          <mxGeometry y="180" width="371.4285714285715" height="20" as="geometry" />
        </mxCell>
        <mxCell id="xQRUrv1FKYMeT_BhPnYZ-113" value="INT DEFAULT 1" style="shape=partialRectangle;connectable=0;fillColor=none;top=0;left=0;bottom=0;right=0;editable=1;overflow=hidden;whiteSpace=wrap;html=1;align=left;" vertex="1" parent="xQRUrv1FKYMeT_BhPnYZ-112">
          <mxGeometry width="180" height="20" as="geometry">
            <mxRectangle width="180" height="20" as="alternateBounds" />
          </mxGeometry>
        </mxCell>
        <mxCell id="xQRUrv1FKYMeT_BhPnYZ-114" value="p_numeric_char" style="shape=partialRectangle;connectable=0;fillColor=none;top=0;left=0;bottom=0;right=0;align=left;spacingLeft=6;overflow=hidden;whiteSpace=wrap;html=1;" vertex="1" parent="xQRUrv1FKYMeT_BhPnYZ-112">
          <mxGeometry x="180" width="191.4285714285715" height="20" as="geometry">
            <mxRectangle width="191.4285714285715" height="20" as="alternateBounds" />
          </mxGeometry>
        </mxCell>
        <mxCell id="xQRUrv1FKYMeT_BhPnYZ-115" value="" style="shape=tableRow;horizontal=0;startSize=0;swimlaneHead=0;swimlaneBody=0;fillColor=none;collapsible=0;dropTarget=0;points=[[0,0.5],[1,0.5]];portConstraint=eastwest;top=0;left=0;right=0;bottom=0;" vertex="1" parent="xQRUrv1FKYMeT_BhPnYZ-42">
          <mxGeometry y="200" width="371.4285714285715" height="20" as="geometry" />
        </mxCell>
        <mxCell id="xQRUrv1FKYMeT_BhPnYZ-116" value="INT DEFAULT 1" style="shape=partialRectangle;connectable=0;fillColor=none;top=0;left=0;bottom=0;right=0;editable=1;overflow=hidden;whiteSpace=wrap;html=1;align=left;" vertex="1" parent="xQRUrv1FKYMeT_BhPnYZ-115">
          <mxGeometry width="180" height="20" as="geometry">
            <mxRectangle width="180" height="20" as="alternateBounds" />
          </mxGeometry>
        </mxCell>
        <mxCell id="xQRUrv1FKYMeT_BhPnYZ-117" value="p_special_char" style="shape=partialRectangle;connectable=0;fillColor=none;top=0;left=0;bottom=0;right=0;align=left;spacingLeft=6;overflow=hidden;whiteSpace=wrap;html=1;" vertex="1" parent="xQRUrv1FKYMeT_BhPnYZ-115">
          <mxGeometry x="180" width="191.4285714285715" height="20" as="geometry">
            <mxRectangle width="191.4285714285715" height="20" as="alternateBounds" />
          </mxGeometry>
        </mxCell>
        <mxCell id="xQRUrv1FKYMeT_BhPnYZ-118" value="" style="shape=tableRow;horizontal=0;startSize=0;swimlaneHead=0;swimlaneBody=0;fillColor=none;collapsible=0;dropTarget=0;points=[[0,0.5],[1,0.5]];portConstraint=eastwest;top=0;left=0;right=0;bottom=0;" vertex="1" parent="xQRUrv1FKYMeT_BhPnYZ-42">
          <mxGeometry y="220" width="371.4285714285715" height="20" as="geometry" />
        </mxCell>
        <mxCell id="xQRUrv1FKYMeT_BhPnYZ-119" value="VARCHAR DEFAULT *1" style="shape=partialRectangle;connectable=0;fillColor=none;top=0;left=0;bottom=0;right=0;editable=1;overflow=hidden;whiteSpace=wrap;html=1;align=left;" vertex="1" parent="xQRUrv1FKYMeT_BhPnYZ-118">
          <mxGeometry width="180" height="20" as="geometry">
            <mxRectangle width="180" height="20" as="alternateBounds" />
          </mxGeometry>
        </mxCell>
        <mxCell id="xQRUrv1FKYMeT_BhPnYZ-120" value="p_special_char_string" style="shape=partialRectangle;connectable=0;fillColor=none;top=0;left=0;bottom=0;right=0;align=left;spacingLeft=6;overflow=hidden;whiteSpace=wrap;html=1;" vertex="1" parent="xQRUrv1FKYMeT_BhPnYZ-118">
          <mxGeometry x="180" width="191.4285714285715" height="20" as="geometry">
            <mxRectangle width="191.4285714285715" height="20" as="alternateBounds" />
          </mxGeometry>
        </mxCell>
        <mxCell id="xQRUrv1FKYMeT_BhPnYZ-155" value="" style="shape=tableRow;horizontal=0;startSize=0;swimlaneHead=0;swimlaneBody=0;fillColor=none;collapsible=0;dropTarget=0;points=[[0,0.5],[1,0.5]];portConstraint=eastwest;top=0;left=0;right=0;bottom=0;" vertex="1" parent="xQRUrv1FKYMeT_BhPnYZ-42">
          <mxGeometry y="240" width="371.4285714285715" height="20" as="geometry" />
        </mxCell>
        <mxCell id="xQRUrv1FKYMeT_BhPnYZ-156" value="INT DEFAULT 12" style="shape=partialRectangle;connectable=0;fillColor=none;top=0;left=0;bottom=0;right=0;editable=1;overflow=hidden;whiteSpace=wrap;html=1;align=left;" vertex="1" parent="xQRUrv1FKYMeT_BhPnYZ-155">
          <mxGeometry width="180" height="20" as="geometry">
            <mxRectangle width="180" height="20" as="alternateBounds" />
          </mxGeometry>
        </mxCell>
        <mxCell id="xQRUrv1FKYMeT_BhPnYZ-157" value="p_password_history_count" style="shape=partialRectangle;connectable=0;fillColor=none;top=0;left=0;bottom=0;right=0;align=left;spacingLeft=6;overflow=hidden;whiteSpace=wrap;html=1;" vertex="1" parent="xQRUrv1FKYMeT_BhPnYZ-155">
          <mxGeometry x="180" width="191.4285714285715" height="20" as="geometry">
            <mxRectangle width="191.4285714285715" height="20" as="alternateBounds" />
          </mxGeometry>
        </mxCell>
        <mxCell id="xQRUrv1FKYMeT_BhPnYZ-195" value="" style="shape=tableRow;horizontal=0;startSize=0;swimlaneHead=0;swimlaneBody=0;fillColor=none;collapsible=0;dropTarget=0;points=[[0,0.5],[1,0.5]];portConstraint=eastwest;top=0;left=0;right=0;bottom=0;" vertex="1" parent="xQRUrv1FKYMeT_BhPnYZ-42">
          <mxGeometry y="260" width="371.4285714285715" height="20" as="geometry" />
        </mxCell>
        <mxCell id="xQRUrv1FKYMeT_BhPnYZ-196" value="BOOLEAN DEFAULT FALSE" style="shape=partialRectangle;connectable=0;fillColor=none;top=0;left=0;bottom=0;right=0;editable=1;overflow=hidden;whiteSpace=wrap;html=1;align=left;" vertex="1" parent="xQRUrv1FKYMeT_BhPnYZ-195">
          <mxGeometry width="180" height="20" as="geometry">
            <mxRectangle width="180" height="20" as="alternateBounds" />
          </mxGeometry>
        </mxCell>
        <mxCell id="xQRUrv1FKYMeT_BhPnYZ-197" value="p_password_override" style="shape=partialRectangle;connectable=0;fillColor=none;top=0;left=0;bottom=0;right=0;align=left;spacingLeft=6;overflow=hidden;whiteSpace=wrap;html=1;" vertex="1" parent="xQRUrv1FKYMeT_BhPnYZ-195">
          <mxGeometry x="180" width="191.4285714285715" height="20" as="geometry">
            <mxRectangle width="191.4285714285715" height="20" as="alternateBounds" />
          </mxGeometry>
        </mxCell>
        <mxCell id="xQRUrv1FKYMeT_BhPnYZ-238" value="" style="shape=tableRow;horizontal=0;startSize=0;swimlaneHead=0;swimlaneBody=0;fillColor=none;collapsible=0;dropTarget=0;points=[[0,0.5],[1,0.5]];portConstraint=eastwest;top=0;left=0;right=0;bottom=0;" vertex="1" parent="xQRUrv1FKYMeT_BhPnYZ-42">
          <mxGeometry y="280" width="371.4285714285715" height="20" as="geometry" />
        </mxCell>
        <mxCell id="xQRUrv1FKYMeT_BhPnYZ-239" value="DEFAULT &#39;20 minutes&#39;" style="shape=partialRectangle;connectable=0;fillColor=none;top=0;left=0;bottom=0;right=0;editable=1;overflow=hidden;whiteSpace=wrap;html=1;align=left;" vertex="1" parent="xQRUrv1FKYMeT_BhPnYZ-238">
          <mxGeometry width="180" height="20" as="geometry">
            <mxRectangle width="180" height="20" as="alternateBounds" />
          </mxGeometry>
        </mxCell>
        <mxCell id="xQRUrv1FKYMeT_BhPnYZ-240" value="p_token_expire" style="shape=partialRectangle;connectable=0;fillColor=none;top=0;left=0;bottom=0;right=0;align=left;spacingLeft=6;overflow=hidden;whiteSpace=wrap;html=1;" vertex="1" parent="xQRUrv1FKYMeT_BhPnYZ-238">
          <mxGeometry x="180" width="191.4285714285715" height="20" as="geometry">
            <mxRectangle width="191.4285714285715" height="20" as="alternateBounds" />
          </mxGeometry>
        </mxCell>
        <mxCell id="xQRUrv1FKYMeT_BhPnYZ-241" value="" style="shape=tableRow;horizontal=0;startSize=0;swimlaneHead=0;swimlaneBody=0;fillColor=none;collapsible=0;dropTarget=0;points=[[0,0.5],[1,0.5]];portConstraint=eastwest;top=0;left=0;right=0;bottom=0;" vertex="1" parent="xQRUrv1FKYMeT_BhPnYZ-42">
          <mxGeometry y="300" width="371.4285714285715" height="20" as="geometry" />
        </mxCell>
        <mxCell id="xQRUrv1FKYMeT_BhPnYZ-242" value="TIMESTAMP DEFAULT NOW()" style="shape=partialRectangle;connectable=0;fillColor=none;top=0;left=0;bottom=0;right=0;editable=1;overflow=hidden;whiteSpace=wrap;html=1;align=left;" vertex="1" parent="xQRUrv1FKYMeT_BhPnYZ-241">
          <mxGeometry width="180" height="20" as="geometry">
            <mxRectangle width="180" height="20" as="alternateBounds" />
          </mxGeometry>
        </mxCell>
        <mxCell id="xQRUrv1FKYMeT_BhPnYZ-243" value="p_change_trigger_update_history" style="shape=partialRectangle;connectable=0;fillColor=none;top=0;left=0;bottom=0;right=0;align=left;spacingLeft=6;overflow=hidden;whiteSpace=wrap;html=1;" vertex="1" parent="xQRUrv1FKYMeT_BhPnYZ-241">
          <mxGeometry x="180" width="191.4285714285715" height="20" as="geometry">
            <mxRectangle width="191.4285714285715" height="20" as="alternateBounds" />
          </mxGeometry>
        </mxCell>
        <mxCell id="xQRUrv1FKYMeT_BhPnYZ-244" value="&lt;font style=&quot;font-size: 10px;&quot;&gt;*1 Allowd charated:&amp;nbsp;&lt;/font&gt;&lt;div&gt;&lt;font style=&quot;font-size: 10px;&quot;&gt;&#39;abcdefghijklmnopqrstuvwxyzABCDEFGHIJKLMNOPQRSTUVWXYZ0123456789.~#^_=+&#39;&lt;/font&gt;&lt;/div&gt;" style="text;html=1;align=left;verticalAlign=middle;resizable=0;points=[];autosize=1;strokeColor=none;fillColor=none;" vertex="1" parent="xQRUrv1FKYMeT_BhPnYZ-245">
          <mxGeometry y="320.54794520547944" width="420" height="40" as="geometry" />
        </mxCell>
        <mxCell id="xQRUrv1FKYMeT_BhPnYZ-247" value="set_policy_status&amp;nbsp;&amp;nbsp;Function" style="shape=table;startSize=20;container=1;collapsible=1;childLayout=tableLayout;fixedRows=1;rowLines=0;fontStyle=1;align=center;resizeLast=1;html=1;" vertex="1" parent="1">
          <mxGeometry x="160" y="428" width="220" height="90" as="geometry" />
        </mxCell>
        <mxCell id="xQRUrv1FKYMeT_BhPnYZ-248" value="" style="shape=tableRow;horizontal=0;startSize=0;swimlaneHead=0;swimlaneBody=0;fillColor=none;collapsible=0;dropTarget=0;points=[[0,0.5],[1,0.5]];portConstraint=eastwest;top=0;left=0;right=0;bottom=1;" vertex="1" parent="xQRUrv1FKYMeT_BhPnYZ-247">
          <mxGeometry y="20" width="220" height="20" as="geometry" />
        </mxCell>
        <mxCell id="xQRUrv1FKYMeT_BhPnYZ-249" value="Varialbe Type" style="shape=partialRectangle;connectable=0;fillColor=none;top=0;left=0;bottom=0;right=0;fontStyle=1;overflow=hidden;whiteSpace=wrap;html=1;" vertex="1" parent="xQRUrv1FKYMeT_BhPnYZ-248">
          <mxGeometry width="110" height="20" as="geometry">
            <mxRectangle width="110" height="20" as="alternateBounds" />
          </mxGeometry>
        </mxCell>
        <mxCell id="xQRUrv1FKYMeT_BhPnYZ-250" value="Variable Name" style="shape=partialRectangle;connectable=0;fillColor=none;top=0;left=0;bottom=0;right=0;align=left;spacingLeft=6;fontStyle=5;overflow=hidden;whiteSpace=wrap;html=1;" vertex="1" parent="xQRUrv1FKYMeT_BhPnYZ-248">
          <mxGeometry x="110" width="110" height="20" as="geometry">
            <mxRectangle width="110" height="20" as="alternateBounds" />
          </mxGeometry>
        </mxCell>
        <mxCell id="xQRUrv1FKYMeT_BhPnYZ-251" value="" style="shape=tableRow;horizontal=0;startSize=0;swimlaneHead=0;swimlaneBody=0;fillColor=none;collapsible=0;dropTarget=0;points=[[0,0.5],[1,0.5]];portConstraint=eastwest;top=0;left=0;right=0;bottom=0;" vertex="1" parent="xQRUrv1FKYMeT_BhPnYZ-247">
          <mxGeometry y="40" width="220" height="20" as="geometry" />
        </mxCell>
        <mxCell id="xQRUrv1FKYMeT_BhPnYZ-252" value="INT" style="shape=partialRectangle;connectable=0;fillColor=none;top=0;left=0;bottom=0;right=0;editable=1;overflow=hidden;whiteSpace=wrap;html=1;" vertex="1" parent="xQRUrv1FKYMeT_BhPnYZ-251">
          <mxGeometry width="110" height="20" as="geometry">
            <mxRectangle width="110" height="20" as="alternateBounds" />
          </mxGeometry>
        </mxCell>
        <mxCell id="xQRUrv1FKYMeT_BhPnYZ-253" value="p_id" style="shape=partialRectangle;connectable=0;fillColor=none;top=0;left=0;bottom=0;right=0;align=left;spacingLeft=6;overflow=hidden;whiteSpace=wrap;html=1;" vertex="1" parent="xQRUrv1FKYMeT_BhPnYZ-251">
          <mxGeometry x="110" width="110" height="20" as="geometry">
            <mxRectangle width="110" height="20" as="alternateBounds" />
          </mxGeometry>
        </mxCell>
        <mxCell id="xQRUrv1FKYMeT_BhPnYZ-254" value="" style="shape=tableRow;horizontal=0;startSize=0;swimlaneHead=0;swimlaneBody=0;fillColor=none;collapsible=0;dropTarget=0;points=[[0,0.5],[1,0.5]];portConstraint=eastwest;top=0;left=0;right=0;bottom=0;" vertex="1" parent="xQRUrv1FKYMeT_BhPnYZ-247">
          <mxGeometry y="60" width="220" height="20" as="geometry" />
        </mxCell>
        <mxCell id="xQRUrv1FKYMeT_BhPnYZ-255" value="BOOLEAN" style="shape=partialRectangle;connectable=0;fillColor=none;top=0;left=0;bottom=0;right=0;editable=1;overflow=hidden;whiteSpace=wrap;html=1;" vertex="1" parent="xQRUrv1FKYMeT_BhPnYZ-254">
          <mxGeometry width="110" height="20" as="geometry">
            <mxRectangle width="110" height="20" as="alternateBounds" />
          </mxGeometry>
        </mxCell>
        <mxCell id="xQRUrv1FKYMeT_BhPnYZ-256" value="p_status" style="shape=partialRectangle;connectable=0;fillColor=none;top=0;left=0;bottom=0;right=0;align=left;spacingLeft=6;overflow=hidden;whiteSpace=wrap;html=1;" vertex="1" parent="xQRUrv1FKYMeT_BhPnYZ-254">
          <mxGeometry x="110" width="110" height="20" as="geometry">
            <mxRectangle width="110" height="20" as="alternateBounds" />
          </mxGeometry>
        </mxCell>
        <mxCell id="xQRUrv1FKYMeT_BhPnYZ-262" value="" style="group" vertex="1" connectable="0" parent="1">
          <mxGeometry x="20" y="625" width="390" height="330" as="geometry" />
        </mxCell>
        <mxCell id="xQRUrv1FKYMeT_BhPnYZ-263" value="Update Policy&amp;nbsp;&amp;nbsp;Function" style="shape=table;startSize=20;container=1;collapsible=1;childLayout=tableLayout;fixedRows=1;rowLines=0;fontStyle=1;align=center;resizeLast=1;html=1;" vertex="1" parent="xQRUrv1FKYMeT_BhPnYZ-262">
          <mxGeometry x="3" y="5" width="371.4285714285715" height="320" as="geometry" />
        </mxCell>
        <mxCell id="xQRUrv1FKYMeT_BhPnYZ-264" value="" style="shape=tableRow;horizontal=0;startSize=0;swimlaneHead=0;swimlaneBody=0;fillColor=none;collapsible=0;dropTarget=0;points=[[0,0.5],[1,0.5]];portConstraint=eastwest;top=0;left=0;right=0;bottom=1;" vertex="1" parent="xQRUrv1FKYMeT_BhPnYZ-263">
          <mxGeometry y="20" width="371.4285714285715" height="20" as="geometry" />
        </mxCell>
        <mxCell id="xQRUrv1FKYMeT_BhPnYZ-265" value="Variable type" style="shape=partialRectangle;connectable=0;fillColor=none;top=0;left=0;bottom=0;right=0;fontStyle=1;overflow=hidden;whiteSpace=wrap;html=1;" vertex="1" parent="xQRUrv1FKYMeT_BhPnYZ-264">
          <mxGeometry width="180" height="20" as="geometry">
            <mxRectangle width="180" height="20" as="alternateBounds" />
          </mxGeometry>
        </mxCell>
        <mxCell id="xQRUrv1FKYMeT_BhPnYZ-266" value="Variables names" style="shape=partialRectangle;connectable=0;fillColor=none;top=0;left=0;bottom=0;right=0;align=left;spacingLeft=6;fontStyle=5;overflow=hidden;whiteSpace=wrap;html=1;" vertex="1" parent="xQRUrv1FKYMeT_BhPnYZ-264">
          <mxGeometry x="180" width="191.4285714285715" height="20" as="geometry">
            <mxRectangle width="191.4285714285715" height="20" as="alternateBounds" />
          </mxGeometry>
        </mxCell>
        <mxCell id="xQRUrv1FKYMeT_BhPnYZ-267" value="" style="shape=tableRow;horizontal=0;startSize=0;swimlaneHead=0;swimlaneBody=0;fillColor=none;collapsible=0;dropTarget=0;points=[[0,0.5],[1,0.5]];portConstraint=eastwest;top=0;left=0;right=0;bottom=0;" vertex="1" parent="xQRUrv1FKYMeT_BhPnYZ-263">
          <mxGeometry y="40" width="371.4285714285715" height="20" as="geometry" />
        </mxCell>
        <mxCell id="xQRUrv1FKYMeT_BhPnYZ-268" value="VARCHAR" style="shape=partialRectangle;connectable=0;fillColor=none;top=0;left=0;bottom=0;right=0;editable=1;overflow=hidden;whiteSpace=wrap;html=1;align=left;" vertex="1" parent="xQRUrv1FKYMeT_BhPnYZ-267">
          <mxGeometry width="180" height="20" as="geometry">
            <mxRectangle width="180" height="20" as="alternateBounds" />
          </mxGeometry>
        </mxCell>
        <mxCell id="xQRUrv1FKYMeT_BhPnYZ-269" value="p_policy_name" style="shape=partialRectangle;connectable=0;fillColor=none;top=0;left=0;bottom=0;right=0;align=left;spacingLeft=6;overflow=hidden;whiteSpace=wrap;html=1;" vertex="1" parent="xQRUrv1FKYMeT_BhPnYZ-267">
          <mxGeometry x="180" width="191.4285714285715" height="20" as="geometry">
            <mxRectangle width="191.4285714285715" height="20" as="alternateBounds" />
          </mxGeometry>
        </mxCell>
        <mxCell id="xQRUrv1FKYMeT_BhPnYZ-270" value="" style="shape=tableRow;horizontal=0;startSize=0;swimlaneHead=0;swimlaneBody=0;fillColor=none;collapsible=0;dropTarget=0;points=[[0,0.5],[1,0.5]];portConstraint=eastwest;top=0;left=0;right=0;bottom=0;" vertex="1" parent="xQRUrv1FKYMeT_BhPnYZ-263">
          <mxGeometry y="60" width="371.4285714285715" height="20" as="geometry" />
        </mxCell>
        <mxCell id="xQRUrv1FKYMeT_BhPnYZ-271" value="BOOLEAN DEFAULT FALSE" style="shape=partialRectangle;connectable=0;fillColor=none;top=0;left=0;bottom=0;right=0;editable=1;overflow=hidden;whiteSpace=wrap;html=1;align=left;" vertex="1" parent="xQRUrv1FKYMeT_BhPnYZ-270">
          <mxGeometry width="180" height="20" as="geometry">
            <mxRectangle width="180" height="20" as="alternateBounds" />
          </mxGeometry>
        </mxCell>
        <mxCell id="xQRUrv1FKYMeT_BhPnYZ-272" value="p_status" style="shape=partialRectangle;connectable=0;fillColor=none;top=0;left=0;bottom=0;right=0;align=left;spacingLeft=6;overflow=hidden;whiteSpace=wrap;html=1;" vertex="1" parent="xQRUrv1FKYMeT_BhPnYZ-270">
          <mxGeometry x="180" width="191.4285714285715" height="20" as="geometry">
            <mxRectangle width="191.4285714285715" height="20" as="alternateBounds" />
          </mxGeometry>
        </mxCell>
        <mxCell id="xQRUrv1FKYMeT_BhPnYZ-273" value="" style="shape=tableRow;horizontal=0;startSize=0;swimlaneHead=0;swimlaneBody=0;fillColor=none;collapsible=0;dropTarget=0;points=[[0,0.5],[1,0.5]];portConstraint=eastwest;top=0;left=0;right=0;bottom=0;" vertex="1" parent="xQRUrv1FKYMeT_BhPnYZ-263">
          <mxGeometry y="80" width="371.4285714285715" height="20" as="geometry" />
        </mxCell>
        <mxCell id="xQRUrv1FKYMeT_BhPnYZ-274" value="VARCHAR DEFAULT &#39;monthly&#39;" style="shape=partialRectangle;connectable=0;fillColor=none;top=0;left=0;bottom=0;right=0;editable=1;overflow=hidden;whiteSpace=wrap;html=1;align=left;" vertex="1" parent="xQRUrv1FKYMeT_BhPnYZ-273">
          <mxGeometry width="180" height="20" as="geometry">
            <mxRectangle width="180" height="20" as="alternateBounds" />
          </mxGeometry>
        </mxCell>
        <mxCell id="xQRUrv1FKYMeT_BhPnYZ-275" value="p_reval_cycle" style="shape=partialRectangle;connectable=0;fillColor=none;top=0;left=0;bottom=0;right=0;align=left;spacingLeft=6;overflow=hidden;whiteSpace=wrap;html=1;" vertex="1" parent="xQRUrv1FKYMeT_BhPnYZ-273">
          <mxGeometry x="180" width="191.4285714285715" height="20" as="geometry">
            <mxRectangle width="191.4285714285715" height="20" as="alternateBounds" />
          </mxGeometry>
        </mxCell>
        <mxCell id="xQRUrv1FKYMeT_BhPnYZ-276" value="" style="shape=tableRow;horizontal=0;startSize=0;swimlaneHead=0;swimlaneBody=0;fillColor=none;collapsible=0;dropTarget=0;points=[[0,0.5],[1,0.5]];portConstraint=eastwest;top=0;left=0;right=0;bottom=0;" vertex="1" parent="xQRUrv1FKYMeT_BhPnYZ-263">
          <mxGeometry y="100" width="371.4285714285715" height="20" as="geometry" />
        </mxCell>
        <mxCell id="xQRUrv1FKYMeT_BhPnYZ-277" value="INT DEFAULT 15" style="shape=partialRectangle;connectable=0;fillColor=none;top=0;left=0;bottom=0;right=0;editable=1;overflow=hidden;whiteSpace=wrap;html=1;align=left;" vertex="1" parent="xQRUrv1FKYMeT_BhPnYZ-276">
          <mxGeometry width="180" height="20" as="geometry">
            <mxRectangle width="180" height="20" as="alternateBounds" />
          </mxGeometry>
        </mxCell>
        <mxCell id="xQRUrv1FKYMeT_BhPnYZ-278" value="p_max_len" style="shape=partialRectangle;connectable=0;fillColor=none;top=0;left=0;bottom=0;right=0;align=left;spacingLeft=6;overflow=hidden;whiteSpace=wrap;html=1;" vertex="1" parent="xQRUrv1FKYMeT_BhPnYZ-276">
          <mxGeometry x="180" width="191.4285714285715" height="20" as="geometry">
            <mxRectangle width="191.4285714285715" height="20" as="alternateBounds" />
          </mxGeometry>
        </mxCell>
        <mxCell id="xQRUrv1FKYMeT_BhPnYZ-279" value="" style="shape=tableRow;horizontal=0;startSize=0;swimlaneHead=0;swimlaneBody=0;fillColor=none;collapsible=0;dropTarget=0;points=[[0,0.5],[1,0.5]];portConstraint=eastwest;top=0;left=0;right=0;bottom=0;" vertex="1" parent="xQRUrv1FKYMeT_BhPnYZ-263">
          <mxGeometry y="120" width="371.4285714285715" height="20" as="geometry" />
        </mxCell>
        <mxCell id="xQRUrv1FKYMeT_BhPnYZ-280" value="INT DEFAULT 7" style="shape=partialRectangle;connectable=0;fillColor=none;top=0;left=0;bottom=0;right=0;editable=1;overflow=hidden;whiteSpace=wrap;html=1;align=left;" vertex="1" parent="xQRUrv1FKYMeT_BhPnYZ-279">
          <mxGeometry width="180" height="20" as="geometry">
            <mxRectangle width="180" height="20" as="alternateBounds" />
          </mxGeometry>
        </mxCell>
        <mxCell id="xQRUrv1FKYMeT_BhPnYZ-281" value="p_min_len" style="shape=partialRectangle;connectable=0;fillColor=none;top=0;left=0;bottom=0;right=0;align=left;spacingLeft=6;overflow=hidden;whiteSpace=wrap;html=1;" vertex="1" parent="xQRUrv1FKYMeT_BhPnYZ-279">
          <mxGeometry x="180" width="191.4285714285715" height="20" as="geometry">
            <mxRectangle width="191.4285714285715" height="20" as="alternateBounds" />
          </mxGeometry>
        </mxCell>
        <mxCell id="xQRUrv1FKYMeT_BhPnYZ-282" value="" style="shape=tableRow;horizontal=0;startSize=0;swimlaneHead=0;swimlaneBody=0;fillColor=none;collapsible=0;dropTarget=0;points=[[0,0.5],[1,0.5]];portConstraint=eastwest;top=0;left=0;right=0;bottom=0;" vertex="1" parent="xQRUrv1FKYMeT_BhPnYZ-263">
          <mxGeometry y="140" width="371.4285714285715" height="20" as="geometry" />
        </mxCell>
        <mxCell id="xQRUrv1FKYMeT_BhPnYZ-283" value="INT DEFAULT 1" style="shape=partialRectangle;connectable=0;fillColor=none;top=0;left=0;bottom=0;right=0;editable=1;overflow=hidden;whiteSpace=wrap;html=1;align=left;" vertex="1" parent="xQRUrv1FKYMeT_BhPnYZ-282">
          <mxGeometry width="180" height="20" as="geometry">
            <mxRectangle width="180" height="20" as="alternateBounds" />
          </mxGeometry>
        </mxCell>
        <mxCell id="xQRUrv1FKYMeT_BhPnYZ-284" value="p_upper_char" style="shape=partialRectangle;connectable=0;fillColor=none;top=0;left=0;bottom=0;right=0;align=left;spacingLeft=6;overflow=hidden;whiteSpace=wrap;html=1;" vertex="1" parent="xQRUrv1FKYMeT_BhPnYZ-282">
          <mxGeometry x="180" width="191.4285714285715" height="20" as="geometry">
            <mxRectangle width="191.4285714285715" height="20" as="alternateBounds" />
          </mxGeometry>
        </mxCell>
        <mxCell id="xQRUrv1FKYMeT_BhPnYZ-285" value="" style="shape=tableRow;horizontal=0;startSize=0;swimlaneHead=0;swimlaneBody=0;fillColor=none;collapsible=0;dropTarget=0;points=[[0,0.5],[1,0.5]];portConstraint=eastwest;top=0;left=0;right=0;bottom=0;" vertex="1" parent="xQRUrv1FKYMeT_BhPnYZ-263">
          <mxGeometry y="160" width="371.4285714285715" height="20" as="geometry" />
        </mxCell>
        <mxCell id="xQRUrv1FKYMeT_BhPnYZ-286" value="INT DEFAULT 1" style="shape=partialRectangle;connectable=0;fillColor=none;top=0;left=0;bottom=0;right=0;editable=1;overflow=hidden;whiteSpace=wrap;html=1;align=left;" vertex="1" parent="xQRUrv1FKYMeT_BhPnYZ-285">
          <mxGeometry width="180" height="20" as="geometry">
            <mxRectangle width="180" height="20" as="alternateBounds" />
          </mxGeometry>
        </mxCell>
        <mxCell id="xQRUrv1FKYMeT_BhPnYZ-287" value="p_lower_char&lt;span style=&quot;white-space: pre;&quot;&gt;&#x9;&lt;/span&gt;" style="shape=partialRectangle;connectable=0;fillColor=none;top=0;left=0;bottom=0;right=0;align=left;spacingLeft=6;overflow=hidden;whiteSpace=wrap;html=1;" vertex="1" parent="xQRUrv1FKYMeT_BhPnYZ-285">
          <mxGeometry x="180" width="191.4285714285715" height="20" as="geometry">
            <mxRectangle width="191.4285714285715" height="20" as="alternateBounds" />
          </mxGeometry>
        </mxCell>
        <mxCell id="xQRUrv1FKYMeT_BhPnYZ-288" value="" style="shape=tableRow;horizontal=0;startSize=0;swimlaneHead=0;swimlaneBody=0;fillColor=none;collapsible=0;dropTarget=0;points=[[0,0.5],[1,0.5]];portConstraint=eastwest;top=0;left=0;right=0;bottom=0;" vertex="1" parent="xQRUrv1FKYMeT_BhPnYZ-263">
          <mxGeometry y="180" width="371.4285714285715" height="20" as="geometry" />
        </mxCell>
        <mxCell id="xQRUrv1FKYMeT_BhPnYZ-289" value="INT DEFAULT 1" style="shape=partialRectangle;connectable=0;fillColor=none;top=0;left=0;bottom=0;right=0;editable=1;overflow=hidden;whiteSpace=wrap;html=1;align=left;" vertex="1" parent="xQRUrv1FKYMeT_BhPnYZ-288">
          <mxGeometry width="180" height="20" as="geometry">
            <mxRectangle width="180" height="20" as="alternateBounds" />
          </mxGeometry>
        </mxCell>
        <mxCell id="xQRUrv1FKYMeT_BhPnYZ-290" value="p_numeric_char" style="shape=partialRectangle;connectable=0;fillColor=none;top=0;left=0;bottom=0;right=0;align=left;spacingLeft=6;overflow=hidden;whiteSpace=wrap;html=1;" vertex="1" parent="xQRUrv1FKYMeT_BhPnYZ-288">
          <mxGeometry x="180" width="191.4285714285715" height="20" as="geometry">
            <mxRectangle width="191.4285714285715" height="20" as="alternateBounds" />
          </mxGeometry>
        </mxCell>
        <mxCell id="xQRUrv1FKYMeT_BhPnYZ-291" value="" style="shape=tableRow;horizontal=0;startSize=0;swimlaneHead=0;swimlaneBody=0;fillColor=none;collapsible=0;dropTarget=0;points=[[0,0.5],[1,0.5]];portConstraint=eastwest;top=0;left=0;right=0;bottom=0;" vertex="1" parent="xQRUrv1FKYMeT_BhPnYZ-263">
          <mxGeometry y="200" width="371.4285714285715" height="20" as="geometry" />
        </mxCell>
        <mxCell id="xQRUrv1FKYMeT_BhPnYZ-292" value="INT DEFAULT 1" style="shape=partialRectangle;connectable=0;fillColor=none;top=0;left=0;bottom=0;right=0;editable=1;overflow=hidden;whiteSpace=wrap;html=1;align=left;" vertex="1" parent="xQRUrv1FKYMeT_BhPnYZ-291">
          <mxGeometry width="180" height="20" as="geometry">
            <mxRectangle width="180" height="20" as="alternateBounds" />
          </mxGeometry>
        </mxCell>
        <mxCell id="xQRUrv1FKYMeT_BhPnYZ-293" value="p_special_char" style="shape=partialRectangle;connectable=0;fillColor=none;top=0;left=0;bottom=0;right=0;align=left;spacingLeft=6;overflow=hidden;whiteSpace=wrap;html=1;" vertex="1" parent="xQRUrv1FKYMeT_BhPnYZ-291">
          <mxGeometry x="180" width="191.4285714285715" height="20" as="geometry">
            <mxRectangle width="191.4285714285715" height="20" as="alternateBounds" />
          </mxGeometry>
        </mxCell>
        <mxCell id="xQRUrv1FKYMeT_BhPnYZ-294" value="" style="shape=tableRow;horizontal=0;startSize=0;swimlaneHead=0;swimlaneBody=0;fillColor=none;collapsible=0;dropTarget=0;points=[[0,0.5],[1,0.5]];portConstraint=eastwest;top=0;left=0;right=0;bottom=0;" vertex="1" parent="xQRUrv1FKYMeT_BhPnYZ-263">
          <mxGeometry y="220" width="371.4285714285715" height="20" as="geometry" />
        </mxCell>
        <mxCell id="xQRUrv1FKYMeT_BhPnYZ-295" value="VARCHAR DEFAULT *1" style="shape=partialRectangle;connectable=0;fillColor=none;top=0;left=0;bottom=0;right=0;editable=1;overflow=hidden;whiteSpace=wrap;html=1;align=left;" vertex="1" parent="xQRUrv1FKYMeT_BhPnYZ-294">
          <mxGeometry width="180" height="20" as="geometry">
            <mxRectangle width="180" height="20" as="alternateBounds" />
          </mxGeometry>
        </mxCell>
        <mxCell id="xQRUrv1FKYMeT_BhPnYZ-296" value="p_special_char_string" style="shape=partialRectangle;connectable=0;fillColor=none;top=0;left=0;bottom=0;right=0;align=left;spacingLeft=6;overflow=hidden;whiteSpace=wrap;html=1;" vertex="1" parent="xQRUrv1FKYMeT_BhPnYZ-294">
          <mxGeometry x="180" width="191.4285714285715" height="20" as="geometry">
            <mxRectangle width="191.4285714285715" height="20" as="alternateBounds" />
          </mxGeometry>
        </mxCell>
        <mxCell id="xQRUrv1FKYMeT_BhPnYZ-297" value="" style="shape=tableRow;horizontal=0;startSize=0;swimlaneHead=0;swimlaneBody=0;fillColor=none;collapsible=0;dropTarget=0;points=[[0,0.5],[1,0.5]];portConstraint=eastwest;top=0;left=0;right=0;bottom=0;" vertex="1" parent="xQRUrv1FKYMeT_BhPnYZ-263">
          <mxGeometry y="240" width="371.4285714285715" height="20" as="geometry" />
        </mxCell>
        <mxCell id="xQRUrv1FKYMeT_BhPnYZ-298" value="INT DEFAULT 12" style="shape=partialRectangle;connectable=0;fillColor=none;top=0;left=0;bottom=0;right=0;editable=1;overflow=hidden;whiteSpace=wrap;html=1;align=left;" vertex="1" parent="xQRUrv1FKYMeT_BhPnYZ-297">
          <mxGeometry width="180" height="20" as="geometry">
            <mxRectangle width="180" height="20" as="alternateBounds" />
          </mxGeometry>
        </mxCell>
        <mxCell id="xQRUrv1FKYMeT_BhPnYZ-299" value="p_password_history_count" style="shape=partialRectangle;connectable=0;fillColor=none;top=0;left=0;bottom=0;right=0;align=left;spacingLeft=6;overflow=hidden;whiteSpace=wrap;html=1;" vertex="1" parent="xQRUrv1FKYMeT_BhPnYZ-297">
          <mxGeometry x="180" width="191.4285714285715" height="20" as="geometry">
            <mxRectangle width="191.4285714285715" height="20" as="alternateBounds" />
          </mxGeometry>
        </mxCell>
        <mxCell id="xQRUrv1FKYMeT_BhPnYZ-300" value="" style="shape=tableRow;horizontal=0;startSize=0;swimlaneHead=0;swimlaneBody=0;fillColor=none;collapsible=0;dropTarget=0;points=[[0,0.5],[1,0.5]];portConstraint=eastwest;top=0;left=0;right=0;bottom=0;" vertex="1" parent="xQRUrv1FKYMeT_BhPnYZ-263">
          <mxGeometry y="260" width="371.4285714285715" height="20" as="geometry" />
        </mxCell>
        <mxCell id="xQRUrv1FKYMeT_BhPnYZ-301" value="BOOLEAN DEFAULT FALSE" style="shape=partialRectangle;connectable=0;fillColor=none;top=0;left=0;bottom=0;right=0;editable=1;overflow=hidden;whiteSpace=wrap;html=1;align=left;" vertex="1" parent="xQRUrv1FKYMeT_BhPnYZ-300">
          <mxGeometry width="180" height="20" as="geometry">
            <mxRectangle width="180" height="20" as="alternateBounds" />
          </mxGeometry>
        </mxCell>
        <mxCell id="xQRUrv1FKYMeT_BhPnYZ-302" value="p_password_override" style="shape=partialRectangle;connectable=0;fillColor=none;top=0;left=0;bottom=0;right=0;align=left;spacingLeft=6;overflow=hidden;whiteSpace=wrap;html=1;" vertex="1" parent="xQRUrv1FKYMeT_BhPnYZ-300">
          <mxGeometry x="180" width="191.4285714285715" height="20" as="geometry">
            <mxRectangle width="191.4285714285715" height="20" as="alternateBounds" />
          </mxGeometry>
        </mxCell>
        <mxCell id="xQRUrv1FKYMeT_BhPnYZ-303" value="" style="shape=tableRow;horizontal=0;startSize=0;swimlaneHead=0;swimlaneBody=0;fillColor=none;collapsible=0;dropTarget=0;points=[[0,0.5],[1,0.5]];portConstraint=eastwest;top=0;left=0;right=0;bottom=0;" vertex="1" parent="xQRUrv1FKYMeT_BhPnYZ-263">
          <mxGeometry y="280" width="371.4285714285715" height="20" as="geometry" />
        </mxCell>
        <mxCell id="xQRUrv1FKYMeT_BhPnYZ-304" value="DEFAULT &#39;20 minutes&#39;" style="shape=partialRectangle;connectable=0;fillColor=none;top=0;left=0;bottom=0;right=0;editable=1;overflow=hidden;whiteSpace=wrap;html=1;align=left;" vertex="1" parent="xQRUrv1FKYMeT_BhPnYZ-303">
          <mxGeometry width="180" height="20" as="geometry">
            <mxRectangle width="180" height="20" as="alternateBounds" />
          </mxGeometry>
        </mxCell>
        <mxCell id="xQRUrv1FKYMeT_BhPnYZ-305" value="p_token_expire" style="shape=partialRectangle;connectable=0;fillColor=none;top=0;left=0;bottom=0;right=0;align=left;spacingLeft=6;overflow=hidden;whiteSpace=wrap;html=1;" vertex="1" parent="xQRUrv1FKYMeT_BhPnYZ-303">
          <mxGeometry x="180" width="191.4285714285715" height="20" as="geometry">
            <mxRectangle width="191.4285714285715" height="20" as="alternateBounds" />
          </mxGeometry>
        </mxCell>
        <mxCell id="xQRUrv1FKYMeT_BhPnYZ-306" value="" style="shape=tableRow;horizontal=0;startSize=0;swimlaneHead=0;swimlaneBody=0;fillColor=none;collapsible=0;dropTarget=0;points=[[0,0.5],[1,0.5]];portConstraint=eastwest;top=0;left=0;right=0;bottom=0;" vertex="1" parent="xQRUrv1FKYMeT_BhPnYZ-263">
          <mxGeometry y="300" width="371.4285714285715" height="20" as="geometry" />
        </mxCell>
        <mxCell id="xQRUrv1FKYMeT_BhPnYZ-307" value="TIMESTAMP DEFAULT NOW()" style="shape=partialRectangle;connectable=0;fillColor=none;top=0;left=0;bottom=0;right=0;editable=1;overflow=hidden;whiteSpace=wrap;html=1;align=left;" vertex="1" parent="xQRUrv1FKYMeT_BhPnYZ-306">
          <mxGeometry width="180" height="20" as="geometry">
            <mxRectangle width="180" height="20" as="alternateBounds" />
          </mxGeometry>
        </mxCell>
        <mxCell id="xQRUrv1FKYMeT_BhPnYZ-308" value="p_change_trigger_update_history" style="shape=partialRectangle;connectable=0;fillColor=none;top=0;left=0;bottom=0;right=0;align=left;spacingLeft=6;overflow=hidden;whiteSpace=wrap;html=1;" vertex="1" parent="xQRUrv1FKYMeT_BhPnYZ-306">
          <mxGeometry x="180" width="191.4285714285715" height="20" as="geometry">
            <mxRectangle width="191.4285714285715" height="20" as="alternateBounds" />
          </mxGeometry>
        </mxCell>
        <mxCell id="xQRUrv1FKYMeT_BhPnYZ-315" value="View Policy" style="shape=table;startSize=20;container=1;collapsible=1;childLayout=tableLayout;fixedRows=1;rowLines=0;fontStyle=1;align=center;resizeLast=1;html=1;" vertex="1" parent="1">
          <mxGeometry x="160" y="360" width="220" height="60" as="geometry" />
        </mxCell>
        <mxCell id="xQRUrv1FKYMeT_BhPnYZ-316" value="" style="shape=tableRow;horizontal=0;startSize=0;swimlaneHead=0;swimlaneBody=0;fillColor=none;collapsible=0;dropTarget=0;points=[[0,0.5],[1,0.5]];portConstraint=eastwest;top=0;left=0;right=0;bottom=1;" vertex="1" parent="xQRUrv1FKYMeT_BhPnYZ-315">
          <mxGeometry y="20" width="220" height="20" as="geometry" />
        </mxCell>
        <mxCell id="xQRUrv1FKYMeT_BhPnYZ-317" value="Varialbe Type" style="shape=partialRectangle;connectable=0;fillColor=none;top=0;left=0;bottom=0;right=0;fontStyle=1;overflow=hidden;whiteSpace=wrap;html=1;" vertex="1" parent="xQRUrv1FKYMeT_BhPnYZ-316">
          <mxGeometry width="110" height="20" as="geometry">
            <mxRectangle width="110" height="20" as="alternateBounds" />
          </mxGeometry>
        </mxCell>
        <mxCell id="xQRUrv1FKYMeT_BhPnYZ-318" value="Variable Name" style="shape=partialRectangle;connectable=0;fillColor=none;top=0;left=0;bottom=0;right=0;align=left;spacingLeft=6;fontStyle=5;overflow=hidden;whiteSpace=wrap;html=1;" vertex="1" parent="xQRUrv1FKYMeT_BhPnYZ-316">
          <mxGeometry x="110" width="110" height="20" as="geometry">
            <mxRectangle width="110" height="20" as="alternateBounds" />
          </mxGeometry>
        </mxCell>
        <mxCell id="xQRUrv1FKYMeT_BhPnYZ-319" value="" style="shape=tableRow;horizontal=0;startSize=0;swimlaneHead=0;swimlaneBody=0;fillColor=none;collapsible=0;dropTarget=0;points=[[0,0.5],[1,0.5]];portConstraint=eastwest;top=0;left=0;right=0;bottom=0;" vertex="1" parent="xQRUrv1FKYMeT_BhPnYZ-315">
          <mxGeometry y="40" width="220" height="20" as="geometry" />
        </mxCell>
        <mxCell id="xQRUrv1FKYMeT_BhPnYZ-320" value="&lt;font style=&quot;font-size: 10px;&quot;&gt;INT&lt;/font&gt;" style="shape=partialRectangle;connectable=0;fillColor=none;top=0;left=0;bottom=0;right=0;editable=1;overflow=hidden;whiteSpace=wrap;html=1;" vertex="1" parent="xQRUrv1FKYMeT_BhPnYZ-319">
          <mxGeometry width="110" height="20" as="geometry">
            <mxRectangle width="110" height="20" as="alternateBounds" />
          </mxGeometry>
        </mxCell>
        <mxCell id="xQRUrv1FKYMeT_BhPnYZ-321" value="&lt;font style=&quot;font-size: 10px;&quot;&gt;p_id&lt;/font&gt;" style="shape=partialRectangle;connectable=0;fillColor=none;top=0;left=0;bottom=0;right=0;align=left;spacingLeft=6;overflow=hidden;whiteSpace=wrap;html=1;" vertex="1" parent="xQRUrv1FKYMeT_BhPnYZ-319">
          <mxGeometry x="110" width="110" height="20" as="geometry">
            <mxRectangle width="110" height="20" as="alternateBounds" />
          </mxGeometry>
        </mxCell>
        <mxCell id="xQRUrv1FKYMeT_BhPnYZ-519" style="edgeStyle=orthogonalEdgeStyle;rounded=0;orthogonalLoop=1;jettySize=auto;html=1;entryX=0.5;entryY=0;entryDx=0;entryDy=0;startArrow=classic;startFill=1;" edge="1" parent="1" source="xQRUrv1FKYMeT_BhPnYZ-329" target="xQRUrv1FKYMeT_BhPnYZ-15">
          <mxGeometry relative="1" as="geometry">
            <Array as="points">
              <mxPoint x="170" y="180" />
              <mxPoint x="209" y="180" />
            </Array>
          </mxGeometry>
        </mxCell>
        <mxCell id="xQRUrv1FKYMeT_BhPnYZ-329" value="Policy GrapQL" style="swimlane;fontStyle=0;childLayout=stackLayout;horizontal=1;startSize=30;horizontalStack=0;resizeParent=1;resizeParentMax=0;resizeLast=0;collapsible=1;marginBottom=0;whiteSpace=wrap;html=1;" vertex="1" parent="1">
          <mxGeometry x="110" y="54" width="120" height="105" as="geometry" />
        </mxCell>
        <mxCell id="xQRUrv1FKYMeT_BhPnYZ-330" value="set_policy_status" style="text;strokeColor=none;fillColor=none;align=left;verticalAlign=middle;spacingLeft=4;spacingRight=4;overflow=hidden;points=[[0,0.5],[1,0.5]];portConstraint=eastwest;rotatable=0;whiteSpace=wrap;html=1;" vertex="1" parent="xQRUrv1FKYMeT_BhPnYZ-329">
          <mxGeometry y="30" width="120" height="20" as="geometry" />
        </mxCell>
        <mxCell id="xQRUrv1FKYMeT_BhPnYZ-331" value="view_policy" style="text;strokeColor=none;fillColor=none;align=left;verticalAlign=middle;spacingLeft=4;spacingRight=4;overflow=hidden;points=[[0,0.5],[1,0.5]];portConstraint=eastwest;rotatable=0;whiteSpace=wrap;html=1;" vertex="1" parent="xQRUrv1FKYMeT_BhPnYZ-329">
          <mxGeometry y="50" width="120" height="20" as="geometry" />
        </mxCell>
        <mxCell id="xQRUrv1FKYMeT_BhPnYZ-332" value="update_policy" style="text;strokeColor=none;fillColor=none;align=left;verticalAlign=middle;spacingLeft=4;spacingRight=4;overflow=hidden;points=[[0,0.5],[1,0.5]];portConstraint=eastwest;rotatable=0;whiteSpace=wrap;html=1;" vertex="1" parent="xQRUrv1FKYMeT_BhPnYZ-329">
          <mxGeometry y="70" width="120" height="15" as="geometry" />
        </mxCell>
        <mxCell id="xQRUrv1FKYMeT_BhPnYZ-333" value="insert_policy" style="text;strokeColor=none;fillColor=none;align=left;verticalAlign=middle;spacingLeft=4;spacingRight=4;overflow=hidden;points=[[0,0.5],[1,0.5]];portConstraint=eastwest;rotatable=0;whiteSpace=wrap;html=1;" vertex="1" parent="xQRUrv1FKYMeT_BhPnYZ-329">
          <mxGeometry y="85" width="120" height="20" as="geometry" />
        </mxCell>
        <mxCell id="xQRUrv1FKYMeT_BhPnYZ-349" value="" style="group" vertex="1" connectable="0" parent="1">
          <mxGeometry x="425" y="570" width="390" height="380" as="geometry" />
        </mxCell>
        <mxCell id="xQRUrv1FKYMeT_BhPnYZ-350" value="policy Table" style="shape=table;startSize=20;container=1;collapsible=1;childLayout=tableLayout;fixedRows=1;rowLines=0;fontStyle=1;align=center;resizeLast=1;html=1;" vertex="1" parent="xQRUrv1FKYMeT_BhPnYZ-349">
          <mxGeometry width="371.43" height="340" as="geometry" />
        </mxCell>
        <mxCell id="xQRUrv1FKYMeT_BhPnYZ-351" value="" style="shape=tableRow;horizontal=0;startSize=0;swimlaneHead=0;swimlaneBody=0;fillColor=none;collapsible=0;dropTarget=0;points=[[0,0.5],[1,0.5]];portConstraint=eastwest;top=0;left=0;right=0;bottom=1;" vertex="1" parent="xQRUrv1FKYMeT_BhPnYZ-350">
          <mxGeometry y="20" width="371.43" height="20" as="geometry" />
        </mxCell>
        <mxCell id="xQRUrv1FKYMeT_BhPnYZ-352" value="Type" style="shape=partialRectangle;connectable=0;fillColor=none;top=0;left=0;bottom=0;right=0;fontStyle=1;overflow=hidden;whiteSpace=wrap;html=1;" vertex="1" parent="xQRUrv1FKYMeT_BhPnYZ-351">
          <mxGeometry width="180" height="20" as="geometry">
            <mxRectangle width="180" height="20" as="alternateBounds" />
          </mxGeometry>
        </mxCell>
        <mxCell id="xQRUrv1FKYMeT_BhPnYZ-353" value="Row Name" style="shape=partialRectangle;connectable=0;fillColor=none;top=0;left=0;bottom=0;right=0;align=left;spacingLeft=6;fontStyle=5;overflow=hidden;whiteSpace=wrap;html=1;" vertex="1" parent="xQRUrv1FKYMeT_BhPnYZ-351">
          <mxGeometry x="180" width="191.43" height="20" as="geometry">
            <mxRectangle width="191.43" height="20" as="alternateBounds" />
          </mxGeometry>
        </mxCell>
        <mxCell id="xQRUrv1FKYMeT_BhPnYZ-354" value="" style="shape=tableRow;horizontal=0;startSize=0;swimlaneHead=0;swimlaneBody=0;fillColor=none;collapsible=0;dropTarget=0;points=[[0,0.5],[1,0.5]];portConstraint=eastwest;top=0;left=0;right=0;bottom=0;" vertex="1" parent="xQRUrv1FKYMeT_BhPnYZ-350">
          <mxGeometry y="40" width="371.43" height="20" as="geometry" />
        </mxCell>
        <mxCell id="xQRUrv1FKYMeT_BhPnYZ-355" value="SERIAL PRIMARY KEY UNIQUE" style="shape=partialRectangle;connectable=0;fillColor=none;top=0;left=0;bottom=0;right=0;editable=1;overflow=hidden;whiteSpace=wrap;html=1;align=left;" vertex="1" parent="xQRUrv1FKYMeT_BhPnYZ-354">
          <mxGeometry width="180" height="20" as="geometry">
            <mxRectangle width="180" height="20" as="alternateBounds" />
          </mxGeometry>
        </mxCell>
        <mxCell id="xQRUrv1FKYMeT_BhPnYZ-356" value="service_policy_id" style="shape=partialRectangle;connectable=0;fillColor=none;top=0;left=0;bottom=0;right=0;align=left;spacingLeft=6;overflow=hidden;whiteSpace=wrap;html=1;" vertex="1" parent="xQRUrv1FKYMeT_BhPnYZ-354">
          <mxGeometry x="180" width="191.43" height="20" as="geometry">
            <mxRectangle width="191.43" height="20" as="alternateBounds" />
          </mxGeometry>
        </mxCell>
        <mxCell id="xQRUrv1FKYMeT_BhPnYZ-357" value="" style="shape=tableRow;horizontal=0;startSize=0;swimlaneHead=0;swimlaneBody=0;fillColor=none;collapsible=0;dropTarget=0;points=[[0,0.5],[1,0.5]];portConstraint=eastwest;top=0;left=0;right=0;bottom=0;" vertex="1" parent="xQRUrv1FKYMeT_BhPnYZ-350">
          <mxGeometry y="60" width="371.43" height="20" as="geometry" />
        </mxCell>
        <mxCell id="xQRUrv1FKYMeT_BhPnYZ-358" value="BOOLEAN DEFAULT FALSE" style="shape=partialRectangle;connectable=0;fillColor=none;top=0;left=0;bottom=0;right=0;editable=1;overflow=hidden;whiteSpace=wrap;html=1;align=left;" vertex="1" parent="xQRUrv1FKYMeT_BhPnYZ-357">
          <mxGeometry width="180" height="20" as="geometry">
            <mxRectangle width="180" height="20" as="alternateBounds" />
          </mxGeometry>
        </mxCell>
        <mxCell id="xQRUrv1FKYMeT_BhPnYZ-359" value="p_status" style="shape=partialRectangle;connectable=0;fillColor=none;top=0;left=0;bottom=0;right=0;align=left;spacingLeft=6;overflow=hidden;whiteSpace=wrap;html=1;" vertex="1" parent="xQRUrv1FKYMeT_BhPnYZ-357">
          <mxGeometry x="180" width="191.43" height="20" as="geometry">
            <mxRectangle width="191.43" height="20" as="alternateBounds" />
          </mxGeometry>
        </mxCell>
        <mxCell id="xQRUrv1FKYMeT_BhPnYZ-360" value="" style="shape=tableRow;horizontal=0;startSize=0;swimlaneHead=0;swimlaneBody=0;fillColor=none;collapsible=0;dropTarget=0;points=[[0,0.5],[1,0.5]];portConstraint=eastwest;top=0;left=0;right=0;bottom=0;" vertex="1" parent="xQRUrv1FKYMeT_BhPnYZ-350">
          <mxGeometry y="80" width="371.43" height="20" as="geometry" />
        </mxCell>
        <mxCell id="xQRUrv1FKYMeT_BhPnYZ-361" value="VARCHAR DEFAULT &#39;monthly&#39;" style="shape=partialRectangle;connectable=0;fillColor=none;top=0;left=0;bottom=0;right=0;editable=1;overflow=hidden;whiteSpace=wrap;html=1;align=left;" vertex="1" parent="xQRUrv1FKYMeT_BhPnYZ-360">
          <mxGeometry width="180" height="20" as="geometry">
            <mxRectangle width="180" height="20" as="alternateBounds" />
          </mxGeometry>
        </mxCell>
        <mxCell id="xQRUrv1FKYMeT_BhPnYZ-362" value="p_reval_cycle" style="shape=partialRectangle;connectable=0;fillColor=none;top=0;left=0;bottom=0;right=0;align=left;spacingLeft=6;overflow=hidden;whiteSpace=wrap;html=1;" vertex="1" parent="xQRUrv1FKYMeT_BhPnYZ-360">
          <mxGeometry x="180" width="191.43" height="20" as="geometry">
            <mxRectangle width="191.43" height="20" as="alternateBounds" />
          </mxGeometry>
        </mxCell>
        <mxCell id="xQRUrv1FKYMeT_BhPnYZ-363" value="" style="shape=tableRow;horizontal=0;startSize=0;swimlaneHead=0;swimlaneBody=0;fillColor=none;collapsible=0;dropTarget=0;points=[[0,0.5],[1,0.5]];portConstraint=eastwest;top=0;left=0;right=0;bottom=0;" vertex="1" parent="xQRUrv1FKYMeT_BhPnYZ-350">
          <mxGeometry y="100" width="371.43" height="20" as="geometry" />
        </mxCell>
        <mxCell id="xQRUrv1FKYMeT_BhPnYZ-364" value="INT DEFAULT 15" style="shape=partialRectangle;connectable=0;fillColor=none;top=0;left=0;bottom=0;right=0;editable=1;overflow=hidden;whiteSpace=wrap;html=1;align=left;" vertex="1" parent="xQRUrv1FKYMeT_BhPnYZ-363">
          <mxGeometry width="180" height="20" as="geometry">
            <mxRectangle width="180" height="20" as="alternateBounds" />
          </mxGeometry>
        </mxCell>
        <mxCell id="xQRUrv1FKYMeT_BhPnYZ-365" value="p_max_len" style="shape=partialRectangle;connectable=0;fillColor=none;top=0;left=0;bottom=0;right=0;align=left;spacingLeft=6;overflow=hidden;whiteSpace=wrap;html=1;" vertex="1" parent="xQRUrv1FKYMeT_BhPnYZ-363">
          <mxGeometry x="180" width="191.43" height="20" as="geometry">
            <mxRectangle width="191.43" height="20" as="alternateBounds" />
          </mxGeometry>
        </mxCell>
        <mxCell id="xQRUrv1FKYMeT_BhPnYZ-366" value="" style="shape=tableRow;horizontal=0;startSize=0;swimlaneHead=0;swimlaneBody=0;fillColor=none;collapsible=0;dropTarget=0;points=[[0,0.5],[1,0.5]];portConstraint=eastwest;top=0;left=0;right=0;bottom=0;" vertex="1" parent="xQRUrv1FKYMeT_BhPnYZ-350">
          <mxGeometry y="120" width="371.43" height="20" as="geometry" />
        </mxCell>
        <mxCell id="xQRUrv1FKYMeT_BhPnYZ-367" value="INT DEFAULT 7" style="shape=partialRectangle;connectable=0;fillColor=none;top=0;left=0;bottom=0;right=0;editable=1;overflow=hidden;whiteSpace=wrap;html=1;align=left;" vertex="1" parent="xQRUrv1FKYMeT_BhPnYZ-366">
          <mxGeometry width="180" height="20" as="geometry">
            <mxRectangle width="180" height="20" as="alternateBounds" />
          </mxGeometry>
        </mxCell>
        <mxCell id="xQRUrv1FKYMeT_BhPnYZ-368" value="p_min_len" style="shape=partialRectangle;connectable=0;fillColor=none;top=0;left=0;bottom=0;right=0;align=left;spacingLeft=6;overflow=hidden;whiteSpace=wrap;html=1;" vertex="1" parent="xQRUrv1FKYMeT_BhPnYZ-366">
          <mxGeometry x="180" width="191.43" height="20" as="geometry">
            <mxRectangle width="191.43" height="20" as="alternateBounds" />
          </mxGeometry>
        </mxCell>
        <mxCell id="xQRUrv1FKYMeT_BhPnYZ-369" value="" style="shape=tableRow;horizontal=0;startSize=0;swimlaneHead=0;swimlaneBody=0;fillColor=none;collapsible=0;dropTarget=0;points=[[0,0.5],[1,0.5]];portConstraint=eastwest;top=0;left=0;right=0;bottom=0;" vertex="1" parent="xQRUrv1FKYMeT_BhPnYZ-350">
          <mxGeometry y="140" width="371.43" height="20" as="geometry" />
        </mxCell>
        <mxCell id="xQRUrv1FKYMeT_BhPnYZ-370" value="INT DEFAULT 1" style="shape=partialRectangle;connectable=0;fillColor=none;top=0;left=0;bottom=0;right=0;editable=1;overflow=hidden;whiteSpace=wrap;html=1;align=left;" vertex="1" parent="xQRUrv1FKYMeT_BhPnYZ-369">
          <mxGeometry width="180" height="20" as="geometry">
            <mxRectangle width="180" height="20" as="alternateBounds" />
          </mxGeometry>
        </mxCell>
        <mxCell id="xQRUrv1FKYMeT_BhPnYZ-371" value="p_upper_char" style="shape=partialRectangle;connectable=0;fillColor=none;top=0;left=0;bottom=0;right=0;align=left;spacingLeft=6;overflow=hidden;whiteSpace=wrap;html=1;" vertex="1" parent="xQRUrv1FKYMeT_BhPnYZ-369">
          <mxGeometry x="180" width="191.43" height="20" as="geometry">
            <mxRectangle width="191.43" height="20" as="alternateBounds" />
          </mxGeometry>
        </mxCell>
        <mxCell id="xQRUrv1FKYMeT_BhPnYZ-372" value="" style="shape=tableRow;horizontal=0;startSize=0;swimlaneHead=0;swimlaneBody=0;fillColor=none;collapsible=0;dropTarget=0;points=[[0,0.5],[1,0.5]];portConstraint=eastwest;top=0;left=0;right=0;bottom=0;" vertex="1" parent="xQRUrv1FKYMeT_BhPnYZ-350">
          <mxGeometry y="160" width="371.43" height="20" as="geometry" />
        </mxCell>
        <mxCell id="xQRUrv1FKYMeT_BhPnYZ-373" value="INT DEFAULT 1" style="shape=partialRectangle;connectable=0;fillColor=none;top=0;left=0;bottom=0;right=0;editable=1;overflow=hidden;whiteSpace=wrap;html=1;align=left;" vertex="1" parent="xQRUrv1FKYMeT_BhPnYZ-372">
          <mxGeometry width="180" height="20" as="geometry">
            <mxRectangle width="180" height="20" as="alternateBounds" />
          </mxGeometry>
        </mxCell>
        <mxCell id="xQRUrv1FKYMeT_BhPnYZ-374" value="p_lower_char&lt;span style=&quot;white-space: pre;&quot;&gt;&#x9;&lt;/span&gt;" style="shape=partialRectangle;connectable=0;fillColor=none;top=0;left=0;bottom=0;right=0;align=left;spacingLeft=6;overflow=hidden;whiteSpace=wrap;html=1;" vertex="1" parent="xQRUrv1FKYMeT_BhPnYZ-372">
          <mxGeometry x="180" width="191.43" height="20" as="geometry">
            <mxRectangle width="191.43" height="20" as="alternateBounds" />
          </mxGeometry>
        </mxCell>
        <mxCell id="xQRUrv1FKYMeT_BhPnYZ-375" value="" style="shape=tableRow;horizontal=0;startSize=0;swimlaneHead=0;swimlaneBody=0;fillColor=none;collapsible=0;dropTarget=0;points=[[0,0.5],[1,0.5]];portConstraint=eastwest;top=0;left=0;right=0;bottom=0;" vertex="1" parent="xQRUrv1FKYMeT_BhPnYZ-350">
          <mxGeometry y="180" width="371.43" height="20" as="geometry" />
        </mxCell>
        <mxCell id="xQRUrv1FKYMeT_BhPnYZ-376" value="INT DEFAULT 1" style="shape=partialRectangle;connectable=0;fillColor=none;top=0;left=0;bottom=0;right=0;editable=1;overflow=hidden;whiteSpace=wrap;html=1;align=left;" vertex="1" parent="xQRUrv1FKYMeT_BhPnYZ-375">
          <mxGeometry width="180" height="20" as="geometry">
            <mxRectangle width="180" height="20" as="alternateBounds" />
          </mxGeometry>
        </mxCell>
        <mxCell id="xQRUrv1FKYMeT_BhPnYZ-377" value="p_numeric_char" style="shape=partialRectangle;connectable=0;fillColor=none;top=0;left=0;bottom=0;right=0;align=left;spacingLeft=6;overflow=hidden;whiteSpace=wrap;html=1;" vertex="1" parent="xQRUrv1FKYMeT_BhPnYZ-375">
          <mxGeometry x="180" width="191.43" height="20" as="geometry">
            <mxRectangle width="191.43" height="20" as="alternateBounds" />
          </mxGeometry>
        </mxCell>
        <mxCell id="xQRUrv1FKYMeT_BhPnYZ-378" value="" style="shape=tableRow;horizontal=0;startSize=0;swimlaneHead=0;swimlaneBody=0;fillColor=none;collapsible=0;dropTarget=0;points=[[0,0.5],[1,0.5]];portConstraint=eastwest;top=0;left=0;right=0;bottom=0;" vertex="1" parent="xQRUrv1FKYMeT_BhPnYZ-350">
          <mxGeometry y="200" width="371.43" height="20" as="geometry" />
        </mxCell>
        <mxCell id="xQRUrv1FKYMeT_BhPnYZ-379" value="INT DEFAULT 1" style="shape=partialRectangle;connectable=0;fillColor=none;top=0;left=0;bottom=0;right=0;editable=1;overflow=hidden;whiteSpace=wrap;html=1;align=left;" vertex="1" parent="xQRUrv1FKYMeT_BhPnYZ-378">
          <mxGeometry width="180" height="20" as="geometry">
            <mxRectangle width="180" height="20" as="alternateBounds" />
          </mxGeometry>
        </mxCell>
        <mxCell id="xQRUrv1FKYMeT_BhPnYZ-380" value="p_special_char" style="shape=partialRectangle;connectable=0;fillColor=none;top=0;left=0;bottom=0;right=0;align=left;spacingLeft=6;overflow=hidden;whiteSpace=wrap;html=1;" vertex="1" parent="xQRUrv1FKYMeT_BhPnYZ-378">
          <mxGeometry x="180" width="191.43" height="20" as="geometry">
            <mxRectangle width="191.43" height="20" as="alternateBounds" />
          </mxGeometry>
        </mxCell>
        <mxCell id="xQRUrv1FKYMeT_BhPnYZ-381" value="" style="shape=tableRow;horizontal=0;startSize=0;swimlaneHead=0;swimlaneBody=0;fillColor=none;collapsible=0;dropTarget=0;points=[[0,0.5],[1,0.5]];portConstraint=eastwest;top=0;left=0;right=0;bottom=0;" vertex="1" parent="xQRUrv1FKYMeT_BhPnYZ-350">
          <mxGeometry y="220" width="371.43" height="20" as="geometry" />
        </mxCell>
        <mxCell id="xQRUrv1FKYMeT_BhPnYZ-382" value="VARCHAR DEFAULT *1" style="shape=partialRectangle;connectable=0;fillColor=none;top=0;left=0;bottom=0;right=0;editable=1;overflow=hidden;whiteSpace=wrap;html=1;align=left;" vertex="1" parent="xQRUrv1FKYMeT_BhPnYZ-381">
          <mxGeometry width="180" height="20" as="geometry">
            <mxRectangle width="180" height="20" as="alternateBounds" />
          </mxGeometry>
        </mxCell>
        <mxCell id="xQRUrv1FKYMeT_BhPnYZ-383" value="p_special_char_string" style="shape=partialRectangle;connectable=0;fillColor=none;top=0;left=0;bottom=0;right=0;align=left;spacingLeft=6;overflow=hidden;whiteSpace=wrap;html=1;" vertex="1" parent="xQRUrv1FKYMeT_BhPnYZ-381">
          <mxGeometry x="180" width="191.43" height="20" as="geometry">
            <mxRectangle width="191.43" height="20" as="alternateBounds" />
          </mxGeometry>
        </mxCell>
        <mxCell id="xQRUrv1FKYMeT_BhPnYZ-384" value="" style="shape=tableRow;horizontal=0;startSize=0;swimlaneHead=0;swimlaneBody=0;fillColor=none;collapsible=0;dropTarget=0;points=[[0,0.5],[1,0.5]];portConstraint=eastwest;top=0;left=0;right=0;bottom=0;" vertex="1" parent="xQRUrv1FKYMeT_BhPnYZ-350">
          <mxGeometry y="240" width="371.43" height="20" as="geometry" />
        </mxCell>
        <mxCell id="xQRUrv1FKYMeT_BhPnYZ-385" value="INT DEFAULT 12" style="shape=partialRectangle;connectable=0;fillColor=none;top=0;left=0;bottom=0;right=0;editable=1;overflow=hidden;whiteSpace=wrap;html=1;align=left;" vertex="1" parent="xQRUrv1FKYMeT_BhPnYZ-384">
          <mxGeometry width="180" height="20" as="geometry">
            <mxRectangle width="180" height="20" as="alternateBounds" />
          </mxGeometry>
        </mxCell>
        <mxCell id="xQRUrv1FKYMeT_BhPnYZ-386" value="p_password_history_count" style="shape=partialRectangle;connectable=0;fillColor=none;top=0;left=0;bottom=0;right=0;align=left;spacingLeft=6;overflow=hidden;whiteSpace=wrap;html=1;" vertex="1" parent="xQRUrv1FKYMeT_BhPnYZ-384">
          <mxGeometry x="180" width="191.43" height="20" as="geometry">
            <mxRectangle width="191.43" height="20" as="alternateBounds" />
          </mxGeometry>
        </mxCell>
        <mxCell id="xQRUrv1FKYMeT_BhPnYZ-387" value="" style="shape=tableRow;horizontal=0;startSize=0;swimlaneHead=0;swimlaneBody=0;fillColor=none;collapsible=0;dropTarget=0;points=[[0,0.5],[1,0.5]];portConstraint=eastwest;top=0;left=0;right=0;bottom=0;" vertex="1" parent="xQRUrv1FKYMeT_BhPnYZ-350">
          <mxGeometry y="260" width="371.43" height="20" as="geometry" />
        </mxCell>
        <mxCell id="xQRUrv1FKYMeT_BhPnYZ-388" value="BOOLEAN DEFAULT FALSE" style="shape=partialRectangle;connectable=0;fillColor=none;top=0;left=0;bottom=0;right=0;editable=1;overflow=hidden;whiteSpace=wrap;html=1;align=left;" vertex="1" parent="xQRUrv1FKYMeT_BhPnYZ-387">
          <mxGeometry width="180" height="20" as="geometry">
            <mxRectangle width="180" height="20" as="alternateBounds" />
          </mxGeometry>
        </mxCell>
        <mxCell id="xQRUrv1FKYMeT_BhPnYZ-389" value="p_password_override" style="shape=partialRectangle;connectable=0;fillColor=none;top=0;left=0;bottom=0;right=0;align=left;spacingLeft=6;overflow=hidden;whiteSpace=wrap;html=1;" vertex="1" parent="xQRUrv1FKYMeT_BhPnYZ-387">
          <mxGeometry x="180" width="191.43" height="20" as="geometry">
            <mxRectangle width="191.43" height="20" as="alternateBounds" />
          </mxGeometry>
        </mxCell>
        <mxCell id="xQRUrv1FKYMeT_BhPnYZ-390" value="" style="shape=tableRow;horizontal=0;startSize=0;swimlaneHead=0;swimlaneBody=0;fillColor=none;collapsible=0;dropTarget=0;points=[[0,0.5],[1,0.5]];portConstraint=eastwest;top=0;left=0;right=0;bottom=0;" vertex="1" parent="xQRUrv1FKYMeT_BhPnYZ-350">
          <mxGeometry y="280" width="371.43" height="20" as="geometry" />
        </mxCell>
        <mxCell id="xQRUrv1FKYMeT_BhPnYZ-391" value="DEFAULT &#39;20 minutes&#39;" style="shape=partialRectangle;connectable=0;fillColor=none;top=0;left=0;bottom=0;right=0;editable=1;overflow=hidden;whiteSpace=wrap;html=1;align=left;" vertex="1" parent="xQRUrv1FKYMeT_BhPnYZ-390">
          <mxGeometry width="180" height="20" as="geometry">
            <mxRectangle width="180" height="20" as="alternateBounds" />
          </mxGeometry>
        </mxCell>
        <mxCell id="xQRUrv1FKYMeT_BhPnYZ-392" value="p_token_expire" style="shape=partialRectangle;connectable=0;fillColor=none;top=0;left=0;bottom=0;right=0;align=left;spacingLeft=6;overflow=hidden;whiteSpace=wrap;html=1;" vertex="1" parent="xQRUrv1FKYMeT_BhPnYZ-390">
          <mxGeometry x="180" width="191.43" height="20" as="geometry">
            <mxRectangle width="191.43" height="20" as="alternateBounds" />
          </mxGeometry>
        </mxCell>
        <mxCell id="xQRUrv1FKYMeT_BhPnYZ-393" value="" style="shape=tableRow;horizontal=0;startSize=0;swimlaneHead=0;swimlaneBody=0;fillColor=none;collapsible=0;dropTarget=0;points=[[0,0.5],[1,0.5]];portConstraint=eastwest;top=0;left=0;right=0;bottom=0;" vertex="1" parent="xQRUrv1FKYMeT_BhPnYZ-350">
          <mxGeometry y="300" width="371.43" height="20" as="geometry" />
        </mxCell>
        <mxCell id="xQRUrv1FKYMeT_BhPnYZ-394" value="TIMESTAMP DEFAULT NOW()" style="shape=partialRectangle;connectable=0;fillColor=none;top=0;left=0;bottom=0;right=0;editable=1;overflow=hidden;whiteSpace=wrap;html=1;align=left;" vertex="1" parent="xQRUrv1FKYMeT_BhPnYZ-393">
          <mxGeometry width="180" height="20" as="geometry">
            <mxRectangle width="180" height="20" as="alternateBounds" />
          </mxGeometry>
        </mxCell>
        <mxCell id="xQRUrv1FKYMeT_BhPnYZ-395" value="p_change_trigger_update_history" style="shape=partialRectangle;connectable=0;fillColor=none;top=0;left=0;bottom=0;right=0;align=left;spacingLeft=6;overflow=hidden;whiteSpace=wrap;html=1;" vertex="1" parent="xQRUrv1FKYMeT_BhPnYZ-393">
          <mxGeometry x="180" width="191.43" height="20" as="geometry">
            <mxRectangle width="191.43" height="20" as="alternateBounds" />
          </mxGeometry>
        </mxCell>
        <mxCell id="xQRUrv1FKYMeT_BhPnYZ-502" value="" style="shape=tableRow;horizontal=0;startSize=0;swimlaneHead=0;swimlaneBody=0;fillColor=none;collapsible=0;dropTarget=0;points=[[0,0.5],[1,0.5]];portConstraint=eastwest;top=0;left=0;right=0;bottom=0;" vertex="1" parent="xQRUrv1FKYMeT_BhPnYZ-350">
          <mxGeometry y="320" width="371.43" height="20" as="geometry" />
        </mxCell>
        <mxCell id="xQRUrv1FKYMeT_BhPnYZ-503" value="VARCHAR" style="shape=partialRectangle;connectable=0;fillColor=none;top=0;left=0;bottom=0;right=0;editable=1;overflow=hidden;whiteSpace=wrap;html=1;align=left;" vertex="1" parent="xQRUrv1FKYMeT_BhPnYZ-502">
          <mxGeometry width="180" height="20" as="geometry">
            <mxRectangle width="180" height="20" as="alternateBounds" />
          </mxGeometry>
        </mxCell>
        <mxCell id="xQRUrv1FKYMeT_BhPnYZ-504" value="p_policy_name" style="shape=partialRectangle;connectable=0;fillColor=none;top=0;left=0;bottom=0;right=0;align=left;spacingLeft=6;overflow=hidden;whiteSpace=wrap;html=1;" vertex="1" parent="xQRUrv1FKYMeT_BhPnYZ-502">
          <mxGeometry x="180" width="191.43" height="20" as="geometry">
            <mxRectangle width="191.43" height="20" as="alternateBounds" />
          </mxGeometry>
        </mxCell>
        <mxCell id="xQRUrv1FKYMeT_BhPnYZ-396" value="&lt;font style=&quot;font-size: 10px;&quot;&gt;*1 Allowd charated:&amp;nbsp;&lt;/font&gt;&lt;div&gt;&lt;font style=&quot;font-size: 10px;&quot;&gt;&#39;abcdefghijklmnopqrstuvwxyzABCDEFGHIJKLMNOPQRSTUVWXYZ0123456789.~#^_=+&#39;&lt;/font&gt;&lt;/div&gt;" style="text;html=1;align=left;verticalAlign=middle;resizable=0;points=[];autosize=1;strokeColor=none;fillColor=none;" vertex="1" parent="xQRUrv1FKYMeT_BhPnYZ-349">
          <mxGeometry y="338.3561643835616" width="420" height="40" as="geometry" />
        </mxCell>
        <mxCell id="xQRUrv1FKYMeT_BhPnYZ-408" style="edgeStyle=orthogonalEdgeStyle;rounded=0;orthogonalLoop=1;jettySize=auto;html=1;entryX=1;entryY=0.5;entryDx=0;entryDy=0;startArrow=classic;startFill=1;" edge="1" parent="1" source="xQRUrv1FKYMeT_BhPnYZ-43" target="xQRUrv1FKYMeT_BhPnYZ-351">
          <mxGeometry relative="1" as="geometry">
            <Array as="points">
              <mxPoint x="830" y="230" />
              <mxPoint x="830" y="600" />
            </Array>
          </mxGeometry>
        </mxCell>
        <mxCell id="xQRUrv1FKYMeT_BhPnYZ-508" style="edgeStyle=orthogonalEdgeStyle;rounded=0;orthogonalLoop=1;jettySize=auto;html=1;entryX=0;entryY=0.5;entryDx=0;entryDy=0;startArrow=classic;startFill=1;" edge="1" parent="1" source="xQRUrv1FKYMeT_BhPnYZ-319" target="xQRUrv1FKYMeT_BhPnYZ-354">
          <mxGeometry relative="1" as="geometry">
            <Array as="points">
              <mxPoint x="410" y="410" />
              <mxPoint x="410" y="620" />
            </Array>
          </mxGeometry>
        </mxCell>
        <mxCell id="xQRUrv1FKYMeT_BhPnYZ-509" style="edgeStyle=orthogonalEdgeStyle;rounded=0;orthogonalLoop=1;jettySize=auto;html=1;entryX=0;entryY=0.5;entryDx=0;entryDy=0;startArrow=classic;startFill=1;" edge="1" parent="1" source="xQRUrv1FKYMeT_BhPnYZ-251" target="xQRUrv1FKYMeT_BhPnYZ-354">
          <mxGeometry relative="1" as="geometry">
            <Array as="points">
              <mxPoint x="410" y="478" />
              <mxPoint x="410" y="620" />
            </Array>
          </mxGeometry>
        </mxCell>
        <mxCell id="xQRUrv1FKYMeT_BhPnYZ-510" style="edgeStyle=orthogonalEdgeStyle;rounded=0;orthogonalLoop=1;jettySize=auto;html=1;entryX=0;entryY=0.5;entryDx=0;entryDy=0;startArrow=classic;startFill=1;" edge="1" parent="1" source="xQRUrv1FKYMeT_BhPnYZ-254" target="xQRUrv1FKYMeT_BhPnYZ-357">
          <mxGeometry relative="1" as="geometry">
            <mxPoint x="410" y="990" as="targetPoint" />
            <Array as="points">
              <mxPoint x="400" y="498" />
              <mxPoint x="400" y="640" />
            </Array>
          </mxGeometry>
        </mxCell>
        <mxCell id="xQRUrv1FKYMeT_BhPnYZ-512" style="edgeStyle=orthogonalEdgeStyle;rounded=0;orthogonalLoop=1;jettySize=auto;html=1;entryX=1;entryY=0.5;entryDx=0;entryDy=0;startArrow=classic;startFill=1;" edge="1" parent="1" source="xQRUrv1FKYMeT_BhPnYZ-263" target="xQRUrv1FKYMeT_BhPnYZ-351">
          <mxGeometry relative="1" as="geometry">
            <Array as="points">
              <mxPoint x="10" y="660" />
              <mxPoint x="10" y="990" />
              <mxPoint x="830" y="990" />
              <mxPoint x="830" y="600" />
            </Array>
          </mxGeometry>
        </mxCell>
        <mxCell id="xQRUrv1FKYMeT_BhPnYZ-515" style="edgeStyle=orthogonalEdgeStyle;rounded=0;orthogonalLoop=1;jettySize=auto;html=1;entryX=0.5;entryY=0;entryDx=0;entryDy=0;startArrow=classic;startFill=1;" edge="1" parent="1" source="xQRUrv1FKYMeT_BhPnYZ-16" target="xQRUrv1FKYMeT_BhPnYZ-42">
          <mxGeometry relative="1" as="geometry">
            <Array as="points">
              <mxPoint x="366" y="240" />
              <mxPoint x="366" y="180" />
              <mxPoint x="607" y="180" />
            </Array>
          </mxGeometry>
        </mxCell>
        <mxCell id="xQRUrv1FKYMeT_BhPnYZ-516" style="edgeStyle=orthogonalEdgeStyle;rounded=0;orthogonalLoop=1;jettySize=auto;html=1;entryX=0.25;entryY=0;entryDx=0;entryDy=0;" edge="1" parent="1" source="xQRUrv1FKYMeT_BhPnYZ-18" target="xQRUrv1FKYMeT_BhPnYZ-263">
          <mxGeometry relative="1" as="geometry">
            <Array as="points">
              <mxPoint x="80" y="298" />
              <mxPoint x="80" y="630" />
            </Array>
          </mxGeometry>
        </mxCell>
        <mxCell id="xQRUrv1FKYMeT_BhPnYZ-517" style="edgeStyle=orthogonalEdgeStyle;rounded=0;orthogonalLoop=1;jettySize=auto;html=1;startArrow=classic;startFill=1;entryX=0;entryY=0.75;entryDx=0;entryDy=0;" edge="1" parent="1" source="xQRUrv1FKYMeT_BhPnYZ-17" target="xQRUrv1FKYMeT_BhPnYZ-247">
          <mxGeometry relative="1" as="geometry">
            <mxPoint x="130" y="510" as="targetPoint" />
            <Array as="points">
              <mxPoint x="300" y="280" />
              <mxPoint x="300" y="340" />
              <mxPoint x="140" y="340" />
              <mxPoint x="140" y="496" />
              <mxPoint x="160" y="496" />
            </Array>
          </mxGeometry>
        </mxCell>
        <mxCell id="xQRUrv1FKYMeT_BhPnYZ-518" style="edgeStyle=orthogonalEdgeStyle;rounded=0;orthogonalLoop=1;jettySize=auto;html=1;entryX=0.75;entryY=0;entryDx=0;entryDy=0;startArrow=classic;startFill=1;" edge="1" parent="1" source="xQRUrv1FKYMeT_BhPnYZ-19" target="xQRUrv1FKYMeT_BhPnYZ-315">
          <mxGeometry relative="1" as="geometry">
            <Array as="points">
              <mxPoint x="325" y="260" />
            </Array>
          </mxGeometry>
        </mxCell>
        <mxCell id="xQRUrv1FKYMeT_BhPnYZ-520" value="&lt;h1&gt;&lt;b&gt;&lt;font style=&quot;font-size: 23px;&quot;&gt;Policy Flow Pages&lt;/font&gt;&lt;/b&gt;&lt;/h1&gt;" style="text;html=1;align=center;verticalAlign=middle;resizable=0;points=[];autosize=1;strokeColor=none;fillColor=none;" vertex="1" parent="1">
          <mxGeometry x="310" width="220" height="70" as="geometry" />
        </mxCell>
        <mxCell id="xQRUrv1FKYMeT_BhPnYZ-521" value="set_policy_status&amp;nbsp;&amp;nbsp;Function" style="shape=table;startSize=20;container=1;collapsible=1;childLayout=tableLayout;fixedRows=1;rowLines=0;fontStyle=1;align=center;resizeLast=1;html=1;" vertex="1" parent="1">
          <mxGeometry x="158" y="534" width="220" height="60" as="geometry" />
        </mxCell>
        <mxCell id="xQRUrv1FKYMeT_BhPnYZ-522" value="" style="shape=tableRow;horizontal=0;startSize=0;swimlaneHead=0;swimlaneBody=0;fillColor=none;collapsible=0;dropTarget=0;points=[[0,0.5],[1,0.5]];portConstraint=eastwest;top=0;left=0;right=0;bottom=1;" vertex="1" parent="xQRUrv1FKYMeT_BhPnYZ-521">
          <mxGeometry y="20" width="220" height="20" as="geometry" />
        </mxCell>
        <mxCell id="xQRUrv1FKYMeT_BhPnYZ-523" value="Varialbe Type" style="shape=partialRectangle;connectable=0;fillColor=none;top=0;left=0;bottom=0;right=0;fontStyle=1;overflow=hidden;whiteSpace=wrap;html=1;" vertex="1" parent="xQRUrv1FKYMeT_BhPnYZ-522">
          <mxGeometry width="110" height="20" as="geometry">
            <mxRectangle width="110" height="20" as="alternateBounds" />
          </mxGeometry>
        </mxCell>
        <mxCell id="xQRUrv1FKYMeT_BhPnYZ-524" value="Variable Name" style="shape=partialRectangle;connectable=0;fillColor=none;top=0;left=0;bottom=0;right=0;align=left;spacingLeft=6;fontStyle=5;overflow=hidden;whiteSpace=wrap;html=1;" vertex="1" parent="xQRUrv1FKYMeT_BhPnYZ-522">
          <mxGeometry x="110" width="110" height="20" as="geometry">
            <mxRectangle width="110" height="20" as="alternateBounds" />
          </mxGeometry>
        </mxCell>
        <mxCell id="xQRUrv1FKYMeT_BhPnYZ-525" value="" style="shape=tableRow;horizontal=0;startSize=0;swimlaneHead=0;swimlaneBody=0;fillColor=none;collapsible=0;dropTarget=0;points=[[0,0.5],[1,0.5]];portConstraint=eastwest;top=0;left=0;right=0;bottom=0;" vertex="1" parent="xQRUrv1FKYMeT_BhPnYZ-521">
          <mxGeometry y="40" width="220" height="20" as="geometry" />
        </mxCell>
        <mxCell id="xQRUrv1FKYMeT_BhPnYZ-526" value="INT" style="shape=partialRectangle;connectable=0;fillColor=none;top=0;left=0;bottom=0;right=0;editable=1;overflow=hidden;whiteSpace=wrap;html=1;" vertex="1" parent="xQRUrv1FKYMeT_BhPnYZ-525">
          <mxGeometry width="110" height="20" as="geometry">
            <mxRectangle width="110" height="20" as="alternateBounds" />
          </mxGeometry>
        </mxCell>
        <mxCell id="xQRUrv1FKYMeT_BhPnYZ-527" value="p_id" style="shape=partialRectangle;connectable=0;fillColor=none;top=0;left=0;bottom=0;right=0;align=left;spacingLeft=6;overflow=hidden;whiteSpace=wrap;html=1;" vertex="1" parent="xQRUrv1FKYMeT_BhPnYZ-525">
          <mxGeometry x="110" width="110" height="20" as="geometry">
            <mxRectangle width="110" height="20" as="alternateBounds" />
          </mxGeometry>
        </mxCell>
        <mxCell id="xQRUrv1FKYMeT_BhPnYZ-531" style="edgeStyle=orthogonalEdgeStyle;rounded=0;orthogonalLoop=1;jettySize=auto;html=1;entryX=0;entryY=0.5;entryDx=0;entryDy=0;" edge="1" parent="1" source="xQRUrv1FKYMeT_BhPnYZ-334" target="xQRUrv1FKYMeT_BhPnYZ-525">
          <mxGeometry relative="1" as="geometry">
            <Array as="points">
              <mxPoint x="110" y="315" />
              <mxPoint x="110" y="584" />
            </Array>
          </mxGeometry>
        </mxCell>
        <mxCell id="xQRUrv1FKYMeT_BhPnYZ-532" style="edgeStyle=orthogonalEdgeStyle;rounded=0;orthogonalLoop=1;jettySize=auto;html=1;entryX=0;entryY=0.5;entryDx=0;entryDy=0;" edge="1" parent="1" source="xQRUrv1FKYMeT_BhPnYZ-525" target="xQRUrv1FKYMeT_BhPnYZ-354">
          <mxGeometry relative="1" as="geometry">
            <Array as="points">
              <mxPoint x="410" y="584" />
              <mxPoint x="410" y="620" />
            </Array>
          </mxGeometry>
        </mxCell>
      </root>
    </mxGraphModel>
  </diagram>
</mxfile>
